<?xml version="1.0" standalone="no"?>
<!DOCTYPE svg PUBLIC "-//W3C//DTD SVG 20010904//EN"
 "http://www.w3.org/TR/2001/REC-SVG-20010904/DTD/svg10.dtd">
<svg version="1.0" xmlns="http://www.w3.org/2000/svg"
 width="512.000000pt" height="512.000000pt" viewBox="0 0 512.000000 512.000000"
 preserveAspectRatio="xMidYMid meet">
<metadata>
Created by potrace 1.14, written by Peter Selinger 2001-2017
</metadata>
<g transform="translate(0.000000,512.000000) scale(0.100000,-0.100000)"
fill="#000000" stroke="none">
<path d="M4335 5111 c-3 -5 -2 -12 3 -15 5 -3 9 1 9 9 0 17 -3 19 -12 6z"/>
<path d="M4635 5090 c1 -17 5 -33 8 -36 3 -3 5 8 3 25 -1 17 -5 33 -8 36 -3 3
-4 -8 -3 -25z"/>
<path d="M4591 5073 c7 -12 15 -20 18 -17 3 2 -3 12 -13 22 -17 16 -18 16 -5
-5z"/>
<path d="M4549 5063 c-13 -16 -12 -17 4 -4 9 7 17 15 17 17 0 8 -8 3 -21 -13z"/>
<path d="M4375 5060 c6 -10 4 -12 -9 -7 -9 4 -14 3 -11 -2 3 -5 1 -12 -5 -16
-5 -3 -10 0 -10 7 0 9 -3 9 -10 -2 -9 -13 -10 -13 -10 0 -1 11 -3 11 -11 -3
-6 -10 -8 -21 -5 -24 3 -4 6 0 6 8 0 11 2 11 10 -1 7 -11 10 -11 10 -2 0 8 5
10 13 5 6 -4 22 -8 34 -8 17 -1 19 2 12 12 -6 6 -8 17 -5 22 4 5 1 13 -5 17
-8 5 -9 3 -4 -6z m-5 -30 c0 -5 -5 -10 -11 -10 -5 0 -7 5 -4 10 3 6 8 10 11
10 2 0 4 -4 4 -10z"/>
<path d="M4137 5054 c-3 -3 -3 -13 0 -22 5 -11 3 -13 -7 -7 -9 5 -11 4 -6 -3
4 -7 3 -12 -3 -12 -5 0 -12 5 -14 10 -3 6 -4 5 -3 -2 2 -7 11 -12 20 -12 9 1
16 -3 16 -8 0 -6 -9 -7 -22 -3 -13 4 -33 7 -45 8 -13 1 -23 6 -23 12 0 5 -5 3
-10 -5 -13 -20 -12 -30 1 -30 5 0 8 4 5 8 -6 10 39 10 49 1 3 -3 -4 -14 -15
-24 -11 -10 -20 -13 -20 -7 0 7 5 12 11 12 5 0 7 5 4 10 -5 8 -11 7 -21 -1
-18 -15 -51 8 -34 25 5 5 10 14 10 20 0 5 -6 2 -12 -7 -14 -17 -53 -17 -53 1
0 6 -3 13 -7 16 -5 3 -6 3 -3 -1 8 -11 -16 -32 -31 -26 -8 3 -22 -1 -31 -8
-15 -12 -16 -12 -10 3 3 10 3 19 -1 22 -4 2 -9 -7 -10 -21 -1 -19 2 -24 13
-19 8 3 15 1 15 -4 0 -6 -9 -10 -19 -10 -11 0 -22 -6 -24 -12 -3 -7 -4 2 -2
20 2 18 0 30 -6 26 -5 -3 -7 -9 -4 -14 3 -5 1 -11 -5 -15 -6 -4 -7 -11 -4 -17
4 -7 2 -8 -5 -4 -6 4 -8 12 -5 18 4 7 -2 8 -17 3 -20 -6 -22 -5 -11 6 6 7 12
20 12 28 0 9 -8 0 -19 -19 -10 -19 -15 -36 -10 -38 5 -2 9 -8 9 -14 0 -6 -6
-6 -15 2 -23 19 -51 -6 -33 -29 8 -11 5 -10 -9 3 -20 16 -25 17 -40 5 -16 -13
-17 -12 -5 3 8 9 11 22 8 27 -4 5 -2 12 4 16 5 3 10 12 10 18 0 7 -6 5 -14 -5
-12 -16 -14 -16 -31 0 -10 9 -14 11 -10 4 4 -8 2 -13 -6 -11 -30 4 -50 -2 -44
-11 5 -8 11 -7 21 1 9 7 14 8 14 1 0 -6 9 -9 20 -7 13 3 18 0 14 -7 -5 -7 -2
-8 7 -4 8 4 6 1 -3 -7 -10 -8 -15 -17 -11 -20 3 -4 1 -7 -6 -7 -7 0 -10 7 -7
18 4 13 0 18 -14 19 -13 1 -18 -2 -13 -10 5 -9 2 -8 -9 0 -15 13 -28 8 -28 -9
0 -5 5 -6 12 -2 7 5 8 3 3 -5 -5 -9 -10 -10 -18 -2 -7 7 -6 15 2 25 9 11 9 15
-1 18 -8 3 -1 11 17 21 29 16 29 16 5 14 -16 -1 -24 3 -22 11 1 8 -2 11 -8 7
-8 -5 -8 -11 -1 -19 6 -7 8 -16 4 -19 -3 -4 -11 0 -17 8 -9 13 -11 10 -11 -14
-1 -16 3 -27 7 -25 5 3 5 10 2 16 -4 7 -2 8 4 4 15 -9 4 -36 -14 -36 -10 0
-13 8 -10 25 3 13 0 28 -6 31 -7 4 -8 2 -4 -4 4 -7 3 -12 -2 -12 -5 0 -8 -11
-7 -25 2 -14 -1 -23 -5 -20 -5 3 -13 -3 -19 -12 -10 -16 -10 -16 -8 4 2 12 7
26 12 30 4 5 5 2 0 -6 -5 -10 -4 -12 3 -7 9 5 9 13 2 27 -13 23 -23 24 -40 4
-7 -8 -22 -15 -34 -16 -20 0 -20 -1 -1 -8 13 -5 24 -3 31 7 8 11 13 12 18 4 4
-7 3 -12 -3 -12 -6 0 -9 -6 -7 -12 1 -7 1 -10 -1 -5 -3 4 -9 4 -14 1 -6 -3 -5
-11 2 -20 6 -8 9 -17 5 -21 -3 -3 -6 -1 -6 5 0 6 -6 9 -14 6 -7 -3 -16 2 -20
11 -3 9 -2 13 3 10 5 -3 12 -2 15 3 2 4 -4 9 -15 9 -15 1 -18 -3 -15 -22 3
-14 7 -29 10 -34 4 -5 1 -13 -5 -17 -8 -4 -9 -3 -5 4 4 7 4 12 -1 13 -4 0 -16
2 -26 4 -13 2 -17 -1 -13 -12 5 -13 4 -14 -9 -3 -12 10 -15 10 -15 0 0 -8 -2
-11 -5 -8 -12 12 8 36 26 33 13 -3 17 0 12 8 -4 7 2 5 13 -3 18 -14 18 -14 4
4 -9 12 -10 17 -3 12 9 -5 11 -2 6 9 -4 12 -8 13 -13 5 -4 -7 -13 -10 -19 -6
-6 4 -9 2 -5 -7 3 -8 -2 -14 -11 -14 -11 0 -14 7 -10 21 6 21 6 21 -7 1 -16
-25 -33 -29 -59 -14 -18 9 -20 9 -11 -7 10 -17 42 -29 42 -15 0 4 7 8 16 8 14
0 14 -2 -2 -14 -10 -7 -13 -13 -8 -13 6 0 11 -7 11 -16 0 -14 -2 -14 -14 2 -7
10 -26 19 -43 19 -35 1 -46 10 -34 28 5 7 1 4 -8 -6 -16 -17 -22 -16 -20 4 1
3 -6 6 -14 6 -8 0 -12 -3 -9 -5 3 -3 0 -11 -7 -19 -8 -10 -8 -17 0 -25 20 -20
13 -29 -6 -10 -10 9 -18 23 -18 31 1 8 -5 15 -12 17 -7 1 -8 0 -2 -3 5 -2 10
-9 10 -14 0 -6 -6 -7 -12 -3 -14 9 10 -26 27 -38 6 -5 6 -8 1 -8 -6 0 -23 12
-40 28 -17 15 -24 18 -16 8 13 -18 13 -19 -1 -14 -11 4 -16 1 -15 -10 0 -10
-3 -18 -7 -19 -19 -5 -47 -45 -29 -42 29 5 34 -2 17 -21 -10 -11 -21 -17 -25
-15 -5 3 -11 -1 -14 -7 -3 -7 -4 -4 -3 7 1 11 7 23 12 27 6 5 5 8 -3 8 -7 0
-10 4 -7 10 9 14 16 54 8 46 -7 -6 -13 -29 -15 -53 -1 -7 -5 -13 -10 -13 -5 0
-6 -4 -3 -10 4 -6 -1 -7 -11 -3 -10 4 -15 2 -11 -3 3 -5 -3 -10 -13 -10 -14 0
-16 4 -9 18 5 10 16 15 24 12 8 -4 15 -1 15 6 0 6 -4 8 -10 5 -5 -3 -10 0 -10
7 0 7 -9 2 -20 -12 -11 -14 -20 -21 -20 -16 0 5 -7 3 -15 -4 -21 -18 -72 -20
-72 -4 0 9 5 10 18 3 23 -12 39 -12 20 0 -12 8 -12 12 -2 25 8 9 9 16 3 16 -5
0 -13 -7 -16 -16 -5 -13 -9 -14 -20 -5 -12 10 -14 6 -12 -22 1 -23 -3 -33 -11
-30 -6 3 -9 16 -7 30 4 23 4 24 -11 9 -9 -9 -21 -14 -26 -11 -5 4 -9 1 -9 -5
0 -7 8 -9 23 -4 22 7 22 6 3 -15 -18 -20 -20 -20 -32 -3 -13 16 -14 16 -7 -2
5 -15 3 -17 -8 -11 -11 6 -12 5 -1 -6 21 -22 13 -33 -10 -13 -12 10 -18 13
-14 6 4 -7 1 -14 -8 -17 -9 -3 -24 -8 -33 -12 -10 -3 -20 -6 -23 -5 -3 0 -6
-8 -6 -19 0 -21 11 -25 21 -9 4 6 12 7 18 3 7 -4 6 0 -2 10 -12 15 -11 17 3
17 10 0 14 -5 10 -11 -4 -7 1 -7 16 1 18 10 21 9 15 -1 -5 -8 -4 -10 4 -5 6 4
9 12 6 17 -3 5 0 6 8 3 8 -3 15 -17 15 -31 -1 -19 -3 -22 -9 -11 -10 18 -47
17 -60 -3 -7 -11 -9 -11 -9 -1 0 7 -5 10 -10 7 -6 -4 -8 -11 -5 -16 3 -5 -1
-6 -9 -3 -9 3 -16 2 -16 -4 0 -5 -6 -12 -13 -15 -7 -3 -13 3 -13 13 0 11 6 16
16 13 12 -4 12 -3 1 5 -8 6 -9 11 -2 13 7 3 7 9 1 19 -8 13 -10 12 -10 -3 0
-11 -6 -17 -12 -14 -7 2 -13 9 -13 15 0 5 -3 13 -7 17 -11 11 -3 -18 12 -45
13 -24 12 -24 -5 -10 -10 8 -16 10 -12 3 4 -6 3 -14 -3 -18 -6 -4 -7 -11 -4
-17 5 -8 1 -9 -11 -5 -17 7 -17 6 -1 -18 10 -15 15 -32 12 -38 -2 -7 -5 -4 -5
6 -1 10 -6 15 -12 12 -5 -4 -18 0 -28 9 -15 14 -18 14 -18 1 0 -8 5 -11 10 -8
6 3 7 1 3 -5 -4 -7 -1 -12 8 -12 30 0 23 -15 -7 -16 -18 -1 -26 1 -19 3 6 3 9
9 6 14 -3 6 -12 5 -21 -3 -20 -16 -60 -18 -60 -2 0 7 6 10 13 7 6 -2 15 0 18
6 4 6 13 8 20 5 9 -4 14 3 14 21 0 18 -3 23 -9 14 -4 -7 -5 -17 -3 -21 3 -4
-2 -5 -10 -2 -9 3 -16 1 -16 -5 0 -13 -31 -11 -41 3 -4 5 -10 -1 -14 -13 -3
-11 -11 -21 -16 -21 -6 0 -7 5 -3 12 4 7 3 8 -5 4 -6 -4 -9 -12 -6 -17 4 -5 3
-9 -2 -9 -4 0 -15 -4 -23 -10 -12 -7 -11 -12 5 -30 16 -18 33 -62 18 -46 -3 3
-15 0 -27 -7 -11 -6 -32 -13 -46 -13 -42 -3 -45 -4 -31 -13 16 -10 6 -31 -14
-31 -7 0 -15 7 -19 15 -8 22 4 47 20 41 7 -3 16 0 20 6 4 7 9 7 13 0 3 -6 11
0 18 14 6 13 7 22 3 19 -5 -3 -10 -2 -13 2 -2 5 -2 3 -1 -4 2 -6 -4 -14 -13
-17 -10 -4 -13 -2 -10 7 3 8 -1 14 -8 14 -7 0 -11 -6 -8 -14 7 -17 -13 -17
-21 0 -4 8 -5 7 -5 -3 2 -30 -1 -41 -11 -35 -5 3 -6 13 -3 22 6 15 5 16 -9 3
-14 -13 -14 -16 1 -28 14 -11 13 -12 -6 -7 -22 6 -29 -2 -24 -29 1 -5 -5 -6
-13 -3 -18 7 -31 -9 -16 -18 5 -3 10 -11 10 -17 0 -7 -6 -6 -15 2 -8 7 -15 9
-15 4 0 -5 -5 -2 -11 6 -8 12 -9 9 -4 -10 6 -24 5 -24 -9 -6 -9 11 -16 15 -16
10 0 -21 23 -33 42 -23 10 5 18 7 18 4 0 -3 10 -1 21 6 16 8 20 8 14 0 -4 -8
2 -10 19 -7 20 4 29 -1 37 -17 9 -20 9 -20 -4 -5 -18 23 -29 12 -16 -16 9 -19
8 -19 -7 2 -9 12 -21 22 -26 22 -6 0 -5 -7 2 -15 10 -12 9 -16 -4 -21 -8 -3
-21 -4 -28 -1 -7 3 -3 6 10 6 14 1 20 5 17 12 -4 6 -14 8 -23 4 -8 -3 -19 0
-23 6 -5 8 -15 4 -35 -14 -15 -14 -31 -24 -36 -21 -4 3 -8 0 -8 -5 0 -6 6 -11
13 -11 8 0 8 -3 -2 -9 -8 -5 -16 -17 -17 -26 -1 -9 -6 -20 -10 -23 -4 -4 -4 1
-1 10 3 10 2 20 -3 23 -4 3 -10 0 -12 -6 -2 -7 -13 -9 -25 -5 -13 4 -20 13
-17 21 7 18 -9 26 -26 13 -12 -8 -11 -9 3 -4 12 4 17 2 14 -6 -2 -7 -11 -12
-21 -10 -9 2 -16 -3 -16 -9 0 -7 3 -9 7 -6 3 4 13 1 21 -6 13 -10 14 -9 7 2
-5 10 -4 12 4 7 6 -4 8 -12 5 -18 -5 -7 -2 -9 8 -6 8 4 21 2 29 -3 11 -7 11
-9 1 -9 -7 0 -10 -5 -7 -10 4 -6 11 -7 17 -4 7 4 8 2 4 -4 -5 -9 -13 -8 -30 3
-12 8 -26 12 -31 8 -4 -5 -6 -3 -3 2 7 11 -17 37 -26 28 -3 -3 -1 -14 5 -24 8
-15 6 -17 -7 -12 -13 5 -15 3 -9 -7 6 -9 4 -11 -4 -5 -9 5 -9 11 -3 17 7 7 7
15 1 22 -5 6 -16 20 -24 31 -14 19 -15 19 -8 1 4 -13 3 -17 -5 -12 -7 4 -12 2
-12 -4 0 -6 -6 -8 -12 -4 -7 4 -6 -1 3 -12 9 -10 14 -25 12 -31 -4 -12 8 -18
30 -14 4 0 7 -3 7 -9 0 -12 -6 -13 -29 -1 -15 9 -18 5 -18 -21 0 -28 1 -29 14
-12 7 10 13 13 13 7 0 -14 -48 -53 -64 -53 -6 1 -1 6 11 13 17 9 19 16 12 29
-7 12 -5 27 6 48 14 27 14 29 -2 23 -10 -4 -14 -2 -10 4 3 5 0 10 -8 10 -13 0
-13 -3 -1 -16 14 -17 11 -45 -4 -36 -5 3 -14 -3 -20 -14 -7 -14 -7 -22 2 -27
6 -4 8 -3 5 2 -3 6 -2 16 2 23 6 9 10 8 13 -7 3 -12 -2 -23 -14 -31 -11 -7
-17 -8 -14 -3 3 6 -1 13 -10 16 -8 3 -12 10 -9 16 3 5 1 10 -4 10 -11 0 -15
-14 -11 -39 1 -13 -1 -13 -15 -1 -12 10 -19 10 -27 2 -19 -19 -28 -14 -29 16
-2 23 -2 24 -6 4 -2 -12 -9 -20 -14 -16 -5 3 -6 10 -3 16 4 6 3 8 -2 5 -16 -9
-10 -62 6 -59 10 2 11 0 2 -11 -7 -8 -10 -16 -7 -19 3 -3 -1 -11 -10 -18 -10
-8 -15 -9 -15 -1 0 6 5 11 11 11 5 0 7 5 3 11 -5 8 -10 6 -16 -5 -11 -20 -1
-39 17 -32 7 2 21 -2 32 -10 10 -9 12 -12 5 -9 -7 4 -24 8 -38 10 -19 2 -23
-1 -19 -16 3 -9 1 -20 -5 -24 -6 -4 -11 -1 -9 6 3 27 -1 40 -11 34 -6 -4 -8
-11 -4 -17 3 -5 -8 -2 -25 6 -17 9 -31 13 -31 9 0 -5 -5 -1 -10 7 -7 10 -10
11 -11 3 -4 -35 -7 -54 -9 -60 -1 -5 -2 -11 -1 -15 1 -8 -15 -12 -31 -9 -5 0
-8 -3 -8 -8 0 -5 11 -8 24 -7 13 0 22 5 18 10 -3 5 -1 6 5 3 6 -4 9 9 8 32 -1
25 3 38 11 38 10 0 11 -4 3 -13 -7 -8 -7 -14 1 -19 5 -3 10 -2 10 3 0 5 7 9
16 9 12 0 9 -6 -10 -20 -14 -10 -23 -23 -20 -28 3 -6 12 -2 21 8 8 10 12 12 8
5 -4 -7 -1 -21 7 -30 12 -15 11 -16 -4 -3 -22 17 -23 3 -3 -26 13 -19 13 -22
-1 -27 -8 -3 -13 -9 -10 -14 2 -4 -4 -8 -15 -8 -19 0 -18 1 3 17 12 10 20 21
16 24 -4 4 -18 -4 -32 -18 -14 -15 -26 -22 -26 -17 0 5 7 15 14 23 13 12 13
17 1 33 -13 18 -14 18 -34 -2 -11 -12 -17 -25 -13 -30 4 -4 1 -4 -6 0 -9 5
-10 12 -3 20 6 7 6 17 1 26 -9 13 -10 13 -11 0 -1 -8 -1 -19 0 -23 1 -4 -7 -7
-16 -5 -11 2 -18 -3 -18 -12 0 -23 -44 -80 -45 -58 0 9 -4 20 -10 23 -7 4 -7
-3 0 -20 14 -36 13 -40 -7 -24 -10 7 -15 10 -11 5 9 -11 -23 -46 -36 -39 -6 4
-5 0 2 -9 11 -14 10 -18 -10 -29 -13 -7 -25 -11 -26 -10 -2 2 -7 -1 -10 -5 -4
-4 -1 -4 6 0 6 4 12 3 12 -2 0 -17 -13 -22 -28 -9 -13 10 -14 9 -7 -3 5 -8 8
-23 6 -34 -1 -10 7 -28 19 -41 14 -15 18 -25 11 -30 -14 -8 -32 3 -30 18 1 7
-2 22 -6 34 -6 18 -11 21 -25 13 -9 -5 -19 -7 -22 -5 -2 2 -4 -6 -4 -20 0 -13
4 -21 9 -18 5 3 8 0 5 -8 -3 -8 -12 -14 -22 -14 -9 0 -21 -7 -26 -15 -6 -9
-10 -10 -10 -3 0 6 -9 11 -20 10 -11 -1 -20 -5 -20 -10 0 -5 7 -7 15 -4 8 4
17 2 20 -3 4 -6 1 -10 -4 -10 -6 0 -11 -5 -11 -11 0 -5 6 -7 12 -3 10 5 10 4
1 -6 -12 -13 -37 -5 -29 9 3 4 -1 8 -8 8 -7 0 -13 -6 -13 -13 0 -7 4 -11 9 -8
4 3 8 0 8 -5 0 -6 -5 -11 -10 -11 -6 0 -15 -11 -22 -25 -9 -20 -14 -23 -32
-14 -19 9 -19 9 2 -8 18 -15 20 -21 10 -31 -18 -18 -32 -14 -17 5 10 11 10 14
2 9 -8 -4 -13 -2 -13 5 0 8 -4 8 -15 -1 -9 -7 -13 -21 -10 -31 4 -11 2 -19 -4
-19 -6 0 -11 5 -11 10 0 6 -5 10 -12 10 -9 0 -9 -3 0 -12 19 -19 14 -32 -5
-17 -10 7 -5 -1 10 -18 l29 -31 -26 2 c-18 1 -25 5 -21 15 4 11 1 10 -13 -2
-10 -9 -21 -15 -24 -12 -8 8 -3 -29 6 -44 7 -10 4 -11 -13 -1 -12 6 -27 9 -34
6 -7 -2 -5 -5 5 -5 9 -1 19 -5 23 -10 3 -6 -4 -8 -16 -6 -20 4 -20 3 -7 -13 9
-9 18 -35 21 -57 4 -26 3 -35 -3 -25 -5 8 -13 11 -17 6 -4 -5 -2 -11 5 -13 6
-3 12 -11 12 -19 0 -9 -4 -13 -9 -10 -12 8 -22 -20 -14 -41 6 -16 5 -16 -10
-4 -9 7 -15 17 -12 21 7 11 -22 6 -32 -5 -4 -4 -3 -5 3 -2 15 8 35 -15 26 -29
-8 -11 -27 -12 -38 -1 -4 4 -12 7 -18 7 -5 0 -1 -6 9 -14 18 -13 18 -14 -4
-25 -13 -7 -20 -15 -17 -18 3 -3 12 0 21 7 8 7 15 8 15 2 0 -14 -26 -33 -41
-30 -8 2 -13 -3 -12 -9 2 -7 -1 -13 -5 -13 -5 0 -18 -9 -31 -21 -21 -20 -21
-22 -5 -40 21 -23 30 -18 15 9 -9 16 -8 20 4 18 8 -1 21 -8 28 -16 10 -10 9
-12 -5 -7 -11 4 -15 2 -12 -7 3 -7 15 -12 27 -11 32 4 33 4 18 14 -8 5 -16 15
-17 23 -1 7 -3 19 -5 27 -2 7 2 16 9 18 7 3 10 -1 6 -10 -3 -8 0 -18 5 -22 6
-3 9 -10 6 -15 -3 -5 -1 -12 5 -15 8 -5 7 -12 -2 -23 -11 -13 -11 -14 2 -10
10 3 15 17 14 41 0 23 3 34 10 30 6 -3 8 -3 4 2 -4 4 -3 17 3 28 6 11 7 17 1
13 -5 -3 -9 5 -8 17 1 12 8 21 15 19 7 -1 10 2 6 7 -3 6 3 8 14 6 14 -2 18 1
14 11 -3 8 0 14 7 14 6 0 9 -4 5 -9 -3 -5 -1 -12 4 -16 6 -3 8 3 6 13 -2 12 3
18 16 19 22 2 24 -7 7 -26 -10 -11 -10 -14 0 -18 6 -3 12 -10 12 -16 0 -8 -4
-7 -12 1 -7 7 -16 12 -22 12 -6 0 -5 -5 2 -12 7 -7 12 -17 12 -22 0 -6 -9 0
-19 13 l-18 23 -2 -33 c-1 -19 -3 -44 -4 -55 -1 -14 -6 -20 -15 -17 -10 4 -11
8 -2 13 9 5 9 9 1 14 -19 12 -26 -26 -7 -39 10 -8 13 -16 7 -19 -5 -3 -12 0
-14 6 -3 8 -6 6 -6 -4 -1 -10 -6 -18 -12 -18 -8 0 -7 -5 2 -16 9 -12 3 -10
-24 5 -20 11 -37 16 -37 11 0 -5 8 -13 17 -19 17 -9 16 -10 -2 -10 -11 1 -30
-2 -42 -4 -13 -3 -26 -1 -29 5 -5 7 -2 8 6 3 8 -5 11 -4 6 3 -4 6 -14 9 -24 6
-11 -4 -8 1 7 14 l24 20 -34 16 -34 17 24 -19 c14 -12 20 -22 13 -26 -6 -3
-13 0 -16 6 -3 7 -4 4 -3 -7 1 -13 -3 -19 -13 -17 -8 2 -11 0 -7 -5 5 -4 13
-9 18 -9 5 -1 13 -2 18 -3 19 -2 -1 -51 -21 -51 -6 0 -6 6 2 15 7 9 10 18 6
22 -3 3 -6 1 -6 -6 0 -7 -4 -10 -9 -7 -4 3 -7 -10 -6 -29 1 -20 -3 -35 -9 -34
-27 3 -38 -2 -33 -16 4 -8 2 -17 -3 -20 -4 -3 -11 1 -13 7 -4 10 -6 10 -6 0
-1 -8 -6 -10 -13 -6 -9 5 -9 2 1 -9 11 -14 11 -20 1 -32 -7 -8 -17 -12 -24 -8
-6 3 -8 3 -4 -2 4 -4 0 -15 -10 -23 -11 -9 -8 -9 10 2 16 9 28 12 28 7 0 -6
-8 -15 -17 -20 -10 -6 -13 -11 -8 -11 6 0 16 5 22 11 8 8 10 1 9 -27 -3 -44
-30 -59 -41 -24 -4 11 -11 17 -17 14 -7 -5 -9 -1 -5 9 3 10 2 17 -3 17 -16 0
-11 -30 5 -36 8 -4 15 -11 15 -16 0 -6 -12 -3 -26 7 -18 11 -29 14 -36 7 -12
-12 -1 -35 13 -27 5 4 9 2 9 -4 0 -6 -9 -15 -20 -21 -11 -6 -20 -16 -20 -23 0
-8 4 -7 10 3 5 8 13 11 17 6 4 -4 -3 -17 -17 -29 -15 -12 -18 -18 -8 -14 10 3
20 2 23 -3 4 -6 0 -10 -7 -10 -11 0 -10 -2 0 -9 11 -7 11 -9 -2 -14 -9 -4 -16
-12 -15 -19 0 -10 2 -10 6 0 2 6 9 12 14 12 6 0 8 -4 5 -9 -9 -14 3 -38 20
-38 9 0 13 6 9 14 -3 8 -5 18 -5 21 0 4 -5 0 -10 -8 -7 -12 -9 -10 -8 6 2 21
38 54 38 35 0 -5 -5 -11 -11 -13 -8 -3 -7 -13 4 -35 9 -17 14 -33 10 -36 -13
-13 -9 -88 5 -96 12 -7 12 -9 -1 -14 -9 -3 -23 -20 -32 -38 -13 -23 -13 -30
-3 -26 7 2 12 9 11 15 -1 5 7 18 18 28 18 16 19 16 13 1 -3 -9 -10 -17 -16
-17 -5 0 -7 -4 -4 -8 3 -5 -6 -19 -21 -32 -19 -16 -24 -18 -20 -6 4 9 2 16 -3
16 -6 0 -10 -5 -10 -12 0 -6 -3 -8 -7 -5 -8 9 -44 -44 -37 -54 2 -4 0 -10 -6
-14 -5 -3 -10 -11 -10 -17 0 -6 9 -3 19 6 19 17 19 17 17 0 -2 -13 -12 -19
-34 -19 -32 -1 -43 10 -20 17 15 5 19 58 4 58 -6 0 -4 5 4 10 13 8 13 10 1 10
-11 0 -9 4 5 14 13 10 23 11 31 4 9 -7 13 -7 13 1 0 7 4 10 8 7 4 -2 14 -1 22
5 10 6 11 9 3 9 -7 0 -13 5 -13 11 0 5 3 8 8 6 10 -5 53 41 43 47 -4 3 -6 25
-5 50 1 25 -2 48 -7 51 -5 4 -9 0 -9 -7 -1 -7 -9 -3 -20 11 -11 13 -20 20 -20
15 0 -4 12 -21 28 -37 l27 -29 -24 -19 c-12 -10 -27 -16 -32 -13 -5 3 -9 0 -9
-5 0 -15 12 -14 38 5 12 8 22 11 22 5 0 -13 -57 -53 -63 -44 -2 5 -2 2 0 -6 2
-9 -2 -11 -14 -6 -30 12 -48 11 -45 -3 2 -9 -4 -11 -18 -7 -12 4 -20 2 -20 -5
0 -6 4 -9 9 -6 16 10 19 -18 4 -49 -12 -25 -12 -27 0 -13 8 10 17 15 20 11 4
-3 1 -13 -6 -21 -10 -13 -9 -14 2 -7 11 6 13 4 8 -8 -3 -9 -2 -19 4 -23 6 -3
3 -11 -7 -18 -21 -16 -10 -38 14 -29 15 6 15 5 3 -10 -12 -15 -12 -19 5 -31
10 -8 23 -12 29 -9 5 2 1 -2 -9 -11 -10 -8 -24 -17 -30 -19 -8 -3 -7 -8 1 -18
9 -9 13 -9 13 -1 0 6 9 16 20 22 14 7 20 7 20 0 0 -5 -6 -10 -14 -10 -8 0 -17
-7 -20 -16 -3 -8 -10 -12 -16 -9 -12 7 -53 -19 -43 -28 3 -4 1 -7 -5 -7 -6 0
-10 9 -9 19 1 12 7 17 17 14 12 -4 12 -3 1 5 -8 6 -9 12 -3 16 6 3 12 0 15 -6
3 -7 5 -4 4 8 -1 21 -29 27 -44 9 -5 -4 -2 -5 6 0 9 5 12 3 9 -6 -6 -15 -10
-15 -43 -4 -16 6 -17 5 -5 -4 14 -10 8 -15 -15 -12 -5 1 -2 -5 8 -12 21 -17
22 -24 2 -24 -8 0 -15 4 -15 9 0 4 -5 8 -11 8 -7 0 -5 -9 5 -25 16 -24 15 -24
-12 -20 -20 2 -29 -1 -29 -11 0 -10 4 -11 11 -4 15 15 22 12 23 -10 1 -13 -2
-18 -10 -13 -7 4 -5 -2 3 -12 14 -17 13 -18 -2 -12 -10 3 -20 2 -23 -3 -3 -4
6 -7 20 -5 14 1 28 -2 31 -7 3 -5 12 -4 20 3 12 10 13 9 8 -5 -4 -10 -12 -15
-19 -12 -8 3 -16 -2 -19 -10 -4 -12 -10 -12 -26 -4 -13 7 -20 7 -20 0 0 -5 7
-10 16 -10 8 0 13 -4 10 -9 -3 -5 1 -11 9 -15 15 -5 29 9 21 22 -2 4 7 8 22 9
15 0 19 -1 9 -4 -9 -2 -15 -9 -11 -14 3 -5 10 -6 16 -3 7 4 8 2 4 -4 -4 -6
-13 -9 -21 -5 -11 4 -15 -2 -15 -23 l0 -29 -21 25 -20 25 12 -25 c7 -14 12
-32 11 -40 -3 -13 -2 -13 7 0 6 8 11 13 12 10 0 -3 2 -13 4 -22 2 -10 -4 -22
-13 -28 -11 -6 -12 -9 -4 -10 7 0 10 -4 7 -10 -4 -6 1 -7 11 -3 14 5 15 3 4
-18 -10 -17 -10 -24 -1 -27 6 -2 9 -8 6 -12 -3 -5 -13 -6 -23 -3 -13 4 -13 2
3 -10 12 -10 15 -16 7 -17 -7 0 -10 -5 -7 -11 5 -6 12 -4 20 8 7 10 11 22 8
27 -4 5 -1 6 5 2 7 -4 12 -2 12 3 0 6 -4 11 -9 11 -11 0 -9 53 2 61 5 4 4 10
-2 13 -6 4 -11 2 -11 -3 0 -6 -5 -11 -11 -11 -8 0 -7 6 2 17 17 20 17 16 0 36
-9 11 -10 17 -2 17 6 0 11 -5 11 -11 0 -5 5 -7 12 -3 8 5 5 11 -7 20 -10 8
-16 16 -13 19 8 9 32 -25 34 -48 2 -12 0 -16 -2 -9 -3 6 -10 9 -15 6 -6 -3 -6
-11 2 -20 6 -7 15 -12 19 -9 5 3 12 0 16 -6 4 -8 3 -9 -4 -5 -17 10 -35 -30
-22 -53 11 -22 4 -51 -13 -51 -6 0 -7 -3 -4 -6 3 -4 -5 -15 -18 -26 -14 -11
-22 -24 -19 -30 4 -7 2 -8 -4 -4 -7 4 -12 2 -12 -3 0 -6 -8 -11 -17 -11 -17
-1 -17 -1 0 -14 17 -13 16 -14 -6 -12 -13 0 -24 7 -24 14 0 6 3 12 7 12 3 0
15 7 26 16 18 15 18 15 -5 8 -16 -4 -21 -3 -17 5 4 6 2 11 -4 11 -7 0 -10 -6
-7 -14 7 -17 -16 -39 -29 -28 -5 4 0 -3 10 -16 11 -12 16 -25 12 -29 -3 -4 6
-13 21 -20 l28 -13 -26 5 c-16 3 -31 -1 -39 -10 -10 -12 -8 -14 7 -10 11 2 26
-1 34 -6 11 -7 11 -9 1 -9 -7 0 -11 -4 -8 -9 3 -4 -4 -17 -15 -27 -11 -10 -17
-24 -15 -31 3 -7 1 -15 -4 -18 -6 -4 -10 -12 -10 -18 0 -7 4 -6 10 3 5 8 12
11 16 7 4 -3 3 -12 -3 -19 -5 -7 -9 -20 -8 -28 0 -8 -4 -19 -10 -23 -6 -4 -2
-7 9 -5 10 2 21 -3 24 -11 3 -8 0 -11 -6 -7 -6 3 -13 2 -17 -4 -4 -6 -11 -8
-16 -5 -5 4 -9 1 -9 -5 0 -7 7 -10 15 -7 21 9 31 -14 11 -28 -15 -12 -15 -13
1 -20 17 -7 17 -8 -2 -16 l-20 -9 20 3 c14 2 20 9 19 24 -1 13 3 20 7 17 27
-17 -6 -66 -39 -58 -7 1 -8 0 -2 -3 5 -2 10 -9 10 -14 0 -6 -5 -7 -11 -4 -6 4
-5 -2 3 -14 13 -22 28 -28 28 -12 0 5 -5 11 -11 13 -7 2 -6 8 3 15 11 9 14 8
15 -5 0 -9 3 -28 7 -40 4 -20 3 -22 -9 -12 -8 6 -19 9 -25 5 -5 -3 -10 -1 -10
4 0 6 -5 11 -11 11 -8 0 -8 -4 -2 -12 13 -16 13 -48 1 -48 -5 0 -6 -5 -2 -11
5 -8 10 -6 16 5 5 9 13 14 19 11 14 -9 11 -38 -4 -32 -6 2 -21 1 -32 -4 -16
-6 -16 -8 -3 -8 14 -1 16 -11 9 -39 -1 -1 -11 2 -24 8 -21 11 -21 10 -3 -4 14
-12 23 -13 33 -5 10 9 13 8 13 -1 0 -7 -8 -19 -17 -26 -16 -12 -16 -13 -1 -8
16 6 20 -17 5 -32 -4 -4 -7 -16 -7 -26 0 -13 -4 -17 -12 -12 -7 4 -10 4 -6 -1
4 -4 4 -13 -2 -19 -6 -8 -2 -12 13 -13 15 -2 18 0 8 6 -16 10 -3 20 22 16 18
-3 23 10 8 19 -5 4 -12 0 -14 -6 -4 -9 -6 -8 -6 3 -1 8 5 24 13 35 10 13 11
23 4 31 -6 7 -6 13 -1 13 5 0 9 9 10 20 1 12 -4 20 -15 20 -13 0 -14 2 -3 12
11 11 14 10 18 0 3 -6 8 -10 12 -8 4 3 8 -1 8 -9 0 -8 -3 -15 -7 -15 -3 0 -6
-9 -7 -20 -1 -11 2 -18 6 -16 4 3 8 -1 8 -9 0 -8 -4 -12 -8 -10 -9 6 -17 -16
-12 -33 3 -6 8 -10 12 -8 4 3 8 -1 8 -9 0 -14 -10 -19 -29 -16 -16 2 -7 -15
12 -27 12 -7 26 -10 33 -7 7 4 3 -1 -7 -9 -11 -9 -16 -16 -11 -16 5 0 4 -5 -3
-12 -19 -19 -14 -32 6 -17 15 13 16 12 3 -4 -11 -14 -16 -15 -30 -5 -14 11
-14 11 -4 -3 10 -12 10 -18 0 -29 -7 -8 -8 -11 -1 -7 18 10 24 -30 8 -50 -18
-24 -17 -31 3 -36 17 -4 17 -5 1 -6 -15 -1 -16 -5 -6 -26 6 -13 14 -22 19 -20
4 3 6 -3 5 -12 -2 -10 2 -21 8 -25 8 -5 7 -8 -1 -8 -7 0 -13 -5 -13 -11 0 -5
4 -7 10 -4 6 3 7 -1 4 -9 -8 -20 -20 -21 -22 -1 -1 8 -3 22 -4 30 -1 8 -5 12
-9 9 -4 -2 -6 8 -3 23 3 22 2 25 -6 13 -9 -12 -10 -11 -5 7 3 12 1 24 -4 27
-6 4 -8 12 -6 19 6 16 -12 44 -22 34 -4 -5 -1 -12 7 -17 8 -5 11 -12 7 -16 -3
-4 -13 -1 -21 5 -11 9 -16 9 -22 0 -4 -8 -3 -9 4 -5 11 7 40 -39 47 -75 2 -11
11 -26 19 -35 14 -14 14 -17 1 -30 -8 -8 -11 -22 -8 -32 6 -15 5 -15 -10 -4
-9 8 -22 12 -29 9 -9 -4 -8 -6 3 -6 9 -1 22 -7 28 -15 9 -11 8 -15 -4 -20 -9
-3 -14 -10 -11 -15 3 -5 -1 -12 -10 -15 -11 -4 -15 -2 -11 8 3 8 -1 17 -8 20
-8 3 -12 12 -9 20 3 8 1 17 -5 21 -7 4 -8 0 -4 -11 5 -13 3 -15 -8 -9 -8 5 -7
1 3 -12 20 -22 23 -43 7 -43 -5 0 -8 4 -4 9 3 6 -5 15 -17 21 -21 10 -21 10
-6 -3 10 -8 15 -17 11 -20 -3 -4 -12 -2 -20 4 -8 8 -13 8 -13 1 0 -6 6 -12 13
-15 6 -2 9 -8 5 -12 -4 -4 -14 -2 -22 4 -17 15 -29 0 -19 -25 4 -10 2 -15 -3
-11 -6 3 -10 -5 -10 -18 0 -13 4 -21 8 -19 4 3 8 1 8 -5 0 -5 -6 -12 -12 -15
-10 -3 -9 -8 3 -18 9 -7 15 -20 14 -28 -2 -9 5 -16 15 -16 10 0 17 3 15 6 -2
3 8 19 21 35 17 22 24 25 24 13 0 -21 16 -32 26 -17 4 7 3 9 -3 6 -6 -4 -13 2
-16 13 -6 24 5 26 23 5 14 -17 30 -20 30 -4 0 5 -3 8 -8 6 -4 -3 -13 1 -20 9
-7 8 -10 14 -6 14 4 0 -1 9 -11 20 -10 11 -14 20 -9 20 5 0 22 -14 38 -32 l28
-32 12 22 c7 13 15 20 19 16 4 -4 2 -13 -4 -21 -8 -9 -8 -17 0 -26 6 -8 8 -17
4 -20 -3 -4 -1 -7 5 -7 15 0 16 17 2 25 -5 3 -10 11 -10 17 0 6 3 8 6 5 4 -3
15 -2 26 4 19 10 38 -1 52 -31 3 -8 4 -5 2 8 -3 15 0 22 7 19 7 -3 11 -11 9
-18 -2 -8 0 -11 3 -7 4 4 21 0 37 -8 17 -9 27 -11 24 -5 -4 6 -1 11 6 11 9 0
9 3 -2 10 -13 8 -12 10 3 10 9 0 17 4 17 8 0 5 -7 9 -15 9 -8 0 -15 -5 -15
-11 0 -6 -5 -5 -12 2 -14 14 -28 16 -28 3 0 -5 10 -11 22 -14 12 -4 19 -9 15
-13 -3 -4 -19 1 -34 11 -16 11 -23 20 -15 23 6 2 12 10 12 17 0 8 4 17 10 20
6 4 7 -1 3 -12 -6 -16 -5 -17 13 -3 18 14 18 14 5 -3 -12 -15 -11 -17 5 -14
11 1 25 7 33 11 12 8 11 11 -4 23 -11 7 -14 13 -8 13 6 0 16 -7 23 -15 14 -17
34 -10 23 8 -4 7 0 6 10 -2 16 -13 14 -36 -3 -26 -5 3 -11 1 -15 -5 -4 -6 -11
-8 -16 -5 -5 4 -9 4 -9 1 0 -3 9 -10 20 -16 17 -9 19 -8 13 7 -3 10 -3 15 2
11 4 -4 14 -3 22 3 13 11 18 1 14 -24 -1 -5 3 -6 9 -2 6 4 2 22 -10 48 -14 29
-15 35 -4 19 17 -23 41 -31 28 -9 -6 9 -5 9 8 0 8 -7 18 -10 22 -6 3 4 17 8
29 10 16 2 18 0 8 -6 -8 -5 -9 -11 -3 -15 6 -3 13 -2 17 4 4 6 11 8 16 5 5 -4
9 0 9 7 0 9 3 9 10 -2 9 -13 11 -13 20 0 5 8 10 10 10 4 0 -6 6 -11 13 -11 6
0 17 -2 22 -3 21 -5 36 1 29 12 -5 7 -3 8 6 3 10 -6 9 -11 -5 -21 -10 -7 -21
-11 -25 -9 -5 3 -11 -2 -14 -10 -4 -13 -2 -14 14 -5 11 6 20 7 20 3 0 -4 11 7
23 25 13 17 27 29 31 25 4 -4 4 1 0 10 -4 12 0 23 12 32 11 8 15 15 9 15 -5 0
-3 4 5 10 8 5 11 12 7 17 -10 10 -28 -18 -20 -31 4 -5 -1 -7 -11 -3 -9 4 -14
3 -11 -2 3 -5 1 -12 -5 -16 -6 -4 -8 -10 -6 -14 3 -4 0 -13 -6 -21 -8 -12 -9
-11 -4 4 5 14 2 17 -11 12 -15 -5 -14 -3 2 9 11 9 20 20 20 26 0 5 7 14 15 19
8 5 11 10 5 10 -5 0 -2 5 8 11 9 5 21 7 27 4 5 -3 15 3 21 14 12 18 13 17 30
-12 9 -18 15 -35 13 -39 -4 -5 20 -4 36 2 3 1 8 2 12 2 3 -1 12 5 18 13 9 11
9 15 1 15 -6 0 -11 -5 -11 -12 0 -6 -3 -9 -6 -5 -3 3 -1 14 5 24 6 10 11 14
11 9 0 -5 8 -2 18 5 15 12 16 12 5 -2 -10 -12 -10 -18 -1 -27 9 -9 9 -12 0
-12 -7 0 -12 -5 -12 -12 0 -6 3 -8 7 -5 3 4 12 2 20 -4 9 -9 17 -8 27 0 10 8
16 9 21 1 3 -5 12 -10 18 -10 8 0 8 3 -1 9 -11 7 -11 9 1 14 10 4 14 0 13 -11
-4 -21 15 -41 33 -34 7 3 3 -6 -10 -20 -13 -13 -30 -22 -36 -20 -9 3 -9 8 2
19 9 8 13 19 10 24 -10 16 -30 10 -44 -13 -13 -22 -13 -23 6 -6 30 27 40 21
13 -7 -13 -14 -20 -28 -17 -32 4 -3 7 -1 7 5 0 6 7 9 15 6 8 -4 15 -10 15 -16
0 -5 -4 -6 -10 -3 -17 10 -11 -7 8 -22 14 -12 14 -14 1 -10 -9 3 -22 1 -30 -5
-12 -8 -12 -9 1 -5 8 2 22 1 31 -4 11 -6 16 -3 16 9 0 9 -4 20 -9 23 -4 3 -2
13 5 23 10 14 18 16 31 9 22 -12 23 -24 2 -35 -9 -5 -16 -14 -16 -19 0 -6 7
-3 16 6 15 14 17 14 31 -2 13 -16 13 -15 0 7 -12 21 -12 29 -2 43 12 16 13 16
19 1 4 -9 4 -19 1 -22 -3 -3 -5 1 -5 8 0 7 -2 11 -5 8 -3 -3 1 -18 10 -34 9
-17 15 -22 15 -13 0 9 7 22 15 29 11 9 12 16 5 25 -8 9 -4 12 12 11 13 -1 29
2 36 7 9 7 11 5 6 -7 -6 -15 -2 -17 27 -14 30 3 34 1 32 -20 -2 -13 1 -21 7
-17 6 3 10 15 10 25 0 16 6 18 36 15 20 -3 33 -1 30 4 -4 5 2 8 11 6 10 -1 26
4 36 13 26 23 21 6 -7 -22 -16 -15 -27 -20 -30 -13 -3 9 -5 9 -5 0 -2 -23 21
-25 35 -4 9 12 20 19 25 16 5 -4 9 -2 9 3 0 4 14 8 30 8 32 0 35 -3 20 -26 -8
-13 -10 -12 -10 3 0 9 -5 17 -11 17 -6 0 -8 -7 -5 -16 5 -13 3 -14 -6 -7 -15
11 -38 11 -38 1 0 -5 3 -8 8 -9 4 0 12 -5 19 -10 7 -7 14 -6 18 1 4 7 17 3 36
-10 22 -16 27 -18 23 -6 -3 9 -13 16 -21 16 -11 0 -10 5 4 24 10 13 20 21 23
17 3 -3 13 -7 24 -9 13 -2 16 1 10 10 -6 10 -4 10 9 -1 14 -11 20 -11 34 0 11
10 14 10 9 2 -4 -8 -1 -13 9 -13 12 0 14 4 5 19 -7 14 -7 22 0 26 6 4 10 3 9
-2 -6 -37 14 -40 44 -8 18 20 18 19 1 -8 -9 -15 -12 -27 -8 -28 5 0 19 -2 31
-3 13 -2 19 2 16 7 -4 6 1 8 11 4 10 -4 27 -1 38 7 11 8 26 12 33 10 7 -3 15
1 18 9 3 7 -1 14 -9 14 -7 0 -10 -5 -7 -10 4 -6 1 -7 -6 -3 -7 5 -21 0 -32
-10 -15 -14 -22 -15 -32 -5 -9 10 -8 11 7 5 14 -5 17 -4 12 5 -5 7 -2 10 6 9
7 -2 12 4 10 14 -1 9 2 19 8 23 6 3 7 0 4 -9 -3 -9 -1 -16 5 -16 6 0 11 4 11
10 0 5 7 7 15 4 8 -4 22 -1 30 6 8 7 20 8 27 4 21 -13 48 -15 48 -3 0 6 9 8
20 4 13 -4 22 -1 26 9 3 8 14 13 25 11 29 -6 41 -16 35 -31 -3 -7 -2 -16 3
-18 11 -7 10 27 -2 42 -7 9 -4 18 8 32 17 19 41 18 29 -1 -3 -5 -10 -6 -16 -3
-7 5 -8 2 -3 -6 6 -9 4 -11 -6 -5 -11 6 -12 5 -2 -5 18 -19 48 -23 33 -5 -8 9
-8 15 0 20 5 3 10 1 10 -6 0 -7 3 -10 6 -7 3 4 0 16 -6 28 -7 13 -8 20 -2 16
6 -3 13 -2 17 4 3 5 1 10 -4 10 -6 0 -11 5 -11 11 0 6 5 7 13 2 22 -14 37 -11
37 7 0 10 -6 21 -12 23 -10 4 -10 6 0 6 7 1 10 6 7 11 -9 14 21 24 42 14 10
-4 21 -6 26 -6 4 1 7 -3 7 -9 0 -6 -8 -8 -19 -4 -19 6 -49 -20 -37 -32 3 -3 6
-1 6 5 0 7 5 12 11 12 5 0 7 -5 4 -10 -3 -6 -1 -10 4 -10 6 0 11 5 11 10 0 6
7 10 16 10 8 0 13 -4 10 -9 -8 -12 20 -22 39 -15 20 8 19 17 -4 31 -15 10 -21
10 -24 0 -3 -7 -5 -3 -4 9 1 11 7 21 14 21 7 0 11 -3 8 -5 -3 -3 3 -11 12 -18
15 -10 23 -9 48 9 16 11 27 17 23 12 -4 -4 -4 -13 2 -19 11 -14 -5 -44 -17
-32 -4 5 -2 11 5 13 6 3 10 9 7 13 -10 15 -34 -1 -28 -18 4 -15 3 -15 -7 -2
-10 13 -11 13 -7 0 2 -8 10 -14 16 -13 6 2 11 -2 11 -8 0 -5 5 -7 12 -3 8 5 9
2 5 -10 -4 -10 -3 -15 3 -11 6 4 10 12 9 18 -3 27 2 37 18 37 13 0 14 -3 5
-12 -7 -7 -12 -16 -12 -21 0 -5 14 5 30 23 17 18 28 35 24 39 -3 3 -11 -2 -18
-11 -11 -15 -16 -16 -31 -4 -17 12 -16 13 6 12 14 -1 23 4 22 11 -2 9 4 10 21
3 16 -6 28 -5 36 3 10 10 12 8 6 -6 -3 -10 -6 -21 -6 -23 0 -3 -4 -2 -10 1 -5
3 -10 2 -10 -4 0 -5 9 -9 19 -8 12 1 17 6 13 16 -3 8 -1 12 5 8 6 -4 10 3 9
15 -1 12 -9 22 -19 24 -9 1 -15 -2 -12 -6 3 -5 2 -11 -3 -14 -4 -2 -8 4 -9 14
-2 27 24 33 47 10 22 -22 28 -13 8 9 -11 11 -10 13 5 7 10 -3 21 -6 23 -6 3 0
2 -6 -2 -12 -6 -10 -5 -10 7 -1 12 10 18 10 29 0 12 -10 12 -9 2 4 -7 9 -11
22 -10 29 2 8 -10 14 -32 16 -20 2 -29 -1 -21 -5 10 -6 9 -9 -3 -14 -8 -3 -18
-1 -22 5 -8 12 16 30 33 23 6 -2 13 1 15 7 3 7 14 5 31 -7 15 -10 30 -15 33
-13 3 3 -10 15 -28 26 -27 18 -29 21 -11 19 12 0 20 -4 17 -8 -2 -4 3 -9 11
-13 8 -3 19 3 24 12 6 10 11 12 11 5 0 -7 6 -13 13 -13 18 0 17 -28 -1 -35
-10 -3 -12 0 -9 10 4 8 1 17 -5 21 -7 4 -8 3 -4 -4 4 -6 -2 -17 -14 -24 -11
-7 -20 -17 -20 -22 0 -4 7 -3 15 4 8 6 18 9 23 7 11 -8 37 10 37 25 0 7 7 13
15 13 8 0 15 8 15 18 0 10 7 22 15 27 8 5 11 10 6 10 -5 0 -3 7 4 15 8 9 21
13 34 10 15 -5 17 -4 8 3 -8 5 -13 12 -13 16 3 24 0 27 -16 15 -15 -13 -15
-12 -2 8 9 16 16 19 21 10 7 -10 11 -4 10 13 0 3 11 6 26 5 29 0 38 -25 12
-33 -13 -5 -13 -3 -1 11 9 11 10 17 2 17 -6 0 -11 -5 -11 -11 0 -5 -4 -8 -9
-4 -17 10 -20 -9 -5 -30 8 -10 14 -14 14 -8 0 7 9 15 20 18 11 3 20 14 20 23
0 15 2 15 11 2 8 -12 9 -10 4 7 -5 19 -3 21 20 17 14 -2 25 0 25 6 0 6 -6 8
-12 4 -9 -5 -9 -2 1 9 9 12 10 17 2 17 -6 0 -14 -7 -18 -16 -4 -12 -8 -12 -13
-4 -5 9 -10 6 -15 -9 -6 -18 -8 -19 -21 -6 -8 8 -22 12 -32 9 -14 -5 -14 -4
-3 4 10 7 21 7 33 1 12 -6 18 -6 18 1 0 5 -6 10 -12 10 -9 0 -8 3 2 9 8 6 18
7 22 5 4 -3 8 3 9 13 0 16 1 17 7 1 5 -11 12 -14 21 -9 10 7 8 12 -10 25 -13
9 -18 16 -12 16 6 0 16 -7 23 -15 7 -8 16 -12 21 -9 5 3 9 0 9 -5 0 -6 -5 -11
-11 -11 -5 0 -7 -5 -3 -12 5 -7 11 -5 21 7 7 11 13 13 13 6 0 -7 5 -9 11 -6 6
4 8 14 5 22 -4 9 -2 11 6 7 8 -5 9 -1 5 12 -7 18 -6 18 6 2 17 -22 30 -12 17
12 -8 15 -6 17 10 13 11 -3 20 -10 20 -15 0 -5 -5 -6 -12 -2 -6 4 -8 3 -4 -4
3 -6 2 -13 -4 -17 -6 -4 -8 -11 -5 -16 4 -5 2 -9 -4 -9 -5 0 -12 6 -15 13 -3
6 -4 3 -3 -8 1 -12 -3 -19 -11 -17 -7 1 -15 -5 -18 -13 -4 -8 -10 -15 -16 -15
-5 0 -7 4 -4 8 3 5 -1 9 -9 9 -10 0 -12 -4 -5 -12 6 -7 5 -16 -3 -25 -6 -7 0
-5 16 5 23 15 30 15 45 4 15 -12 16 -12 4 2 -10 14 -8 19 15 34 15 10 33 18
40 18 7 0 13 4 13 9 0 5 -10 6 -22 2 -20 -6 -21 -5 -10 9 8 9 19 14 27 11 7
-3 16 0 21 7 4 7 2 15 -4 17 -7 2 -10 8 -7 13 4 5 18 1 33 -8 24 -16 26 -16
14 -1 -8 10 -9 18 -3 22 6 4 7 14 4 22 -4 11 -8 12 -13 4 -4 -6 -10 -11 -14
-11 -19 3 -29 0 -23 -6 11 -10 -13 -32 -29 -26 -12 4 -11 8 6 20 15 10 19 21
15 36 -4 12 -3 18 2 12 14 -17 43 -18 37 0 -3 8 -11 12 -17 8 -6 -4 -7 -1 -2
7 6 10 11 10 20 -3 11 -15 14 -15 29 2 11 12 25 17 34 13 14 -5 15 -3 5 9 -10
13 -10 16 2 16 8 0 11 -5 8 -11 -4 -6 3 -2 15 8 12 11 22 14 22 8 0 -6 -9 -18
-21 -26 -12 -8 -18 -19 -14 -25 9 -16 28 -13 22 3 -7 19 18 40 38 32 12 -4 14
-2 7 12 -5 9 -8 24 -7 32 1 17 -15 31 -27 24 -4 -3 -8 -10 -8 -15 0 -6 4 -8 9
-4 5 3 13 0 17 -6 5 -8 3 -9 -7 -4 -11 7 -11 5 1 -11 14 -18 14 -18 -4 -4 -11
8 -21 14 -23 13 -5 -4 -4 10 3 30 3 11 12 16 20 13 8 -3 14 -1 14 3 0 5 -6 12
-12 14 -10 4 -10 6 0 6 7 1 10 6 7 11 -3 6 -1 10 5 10 6 0 10 -6 9 -12 -3 -28
2 -49 10 -43 13 7 10 46 -3 64 -8 11 -8 13 2 7 7 -4 12 -2 12 4 0 6 5 8 11 4
7 -4 10 -1 7 7 -3 8 -12 13 -19 11 -8 -2 -10 0 -6 5 5 4 14 8 20 8 7 1 11 6
10 13 -2 7 3 11 10 9 6 -1 11 4 9 11 -1 8 2 11 9 7 7 -5 3 -15 -10 -29 l-21
-23 25 -11 c27 -12 28 -10 26 33 l-1 20 9 -20 c5 -11 5 -27 0 -37 -6 -10 -5
-19 1 -23 6 -4 8 -16 5 -28 -5 -21 -4 -21 7 1 6 13 17 21 24 18 8 -3 11 0 7
10 -3 7 0 14 6 14 6 0 11 -4 11 -10 0 -5 5 -10 10 -10 6 0 6 7 -1 18 -7 10
-18 19 -25 19 -7 0 -10 -5 -7 -10 4 -6 1 -7 -7 -2 -9 6 -11 4 -5 -5 5 -9 4
-11 -3 -6 -9 5 -9 13 0 29 7 14 13 17 16 9 2 -6 8 -10 12 -7 5 3 7 13 4 23 -5
13 -4 14 4 3 8 -11 11 -9 17 8 7 23 20 27 31 9 4 -6 3 -8 -3 -5 -6 4 -18 -4
-27 -17 -20 -31 -1 -52 27 -31 12 8 14 15 8 20 -6 3 -11 1 -11 -5 0 -6 -4 -9
-10 -5 -5 3 -7 12 -4 20 4 8 10 13 15 10 4 -3 13 4 19 16 9 15 9 19 1 14 -6
-3 -11 -3 -10 2 1 4 0 10 -1 13 -1 3 -3 13 -5 24 -3 14 -1 16 8 7 15 -15 27
-14 27 3 0 8 7 17 16 20 8 3 13 2 9 -3 -3 -5 -2 -11 2 -14 5 -2 2 -2 -5 0 -7
1 -10 -2 -7 -7 3 -6 0 -10 -7 -10 -9 0 -9 -3 2 -10 11 -7 19 -5 27 7 7 9 10
20 7 24 -6 10 17 49 29 49 4 0 5 -5 1 -12 -4 -7 -9 -26 -10 -43 -1 -16 0 -22
3 -12 5 18 5 18 19 0 14 -17 14 -16 4 5 -9 18 -8 27 1 38 10 13 14 13 29 -1
15 -13 17 -13 17 0 0 8 -2 13 -5 11 -6 -7 -30 18 -27 29 1 5 0 7 -2 2 -3 -4
-10 -4 -15 -1 -7 5 -8 2 -3 -7 5 -8 4 -10 0 -6 -16 14 -14 36 3 30 11 -5 13
-3 6 8 -13 21 -14 38 -2 46 6 3 8 2 5 -3 -3 -6 4 -16 15 -23 18 -11 20 -11 15
4 -4 9 -3 13 2 10 12 -7 24 31 15 46 -5 8 -3 9 5 4 8 -4 10 -17 6 -32 -3 -14
-2 -22 2 -20 5 3 9 -3 9 -14 0 -10 -6 -19 -13 -19 -7 0 -10 7 -7 18 3 9 -2 5
-11 -11 -16 -28 -13 -48 8 -46 9 0 9 2 0 6 -19 7 -16 23 5 23 9 0 26 8 37 17
15 12 16 14 3 10 -17 -6 -18 12 -6 63 1 8 -2 14 -9 15 -6 0 -14 3 -18 7 -9 9
17 5 33 -6 19 -11 30 3 12 15 -13 9 -13 10 0 6 8 -2 14 -11 14 -19 -1 -10 5
-14 17 -11 11 3 19 10 19 15 0 5 -5 6 -12 2 -7 -4 -8 -3 -4 4 4 7 2 12 -3 12
-6 0 -11 5 -11 11 0 5 5 7 10 4 6 -3 10 -2 10 3 0 15 28 23 36 10 4 -6 3 -8
-3 -5 -6 4 -16 1 -22 -7 -9 -11 -8 -15 5 -20 9 -4 19 -4 22 -1 3 3 0 5 -6 5
-7 0 -12 4 -12 10 0 5 5 9 12 7 7 -1 12 5 13 13 0 8 5 24 12 35 16 29 16 37 1
47 -10 7 -9 8 5 4 16 -5 22 5 17 29 -1 6 2 7 6 2 12 -11 12 -47 1 -40 -6 4 -7
1 -2 -7 5 -8 4 -11 -3 -6 -7 4 -10 -1 -7 -14 2 -11 0 -22 -6 -25 -12 -8 -12
-25 2 -25 5 0 8 4 4 10 -3 5 7 16 22 25 27 15 27 15 3 9 -22 -6 -23 -5 -12 9
8 9 21 13 30 10 13 -4 12 -2 -3 11 -15 14 -16 16 -3 12 10 -3 32 11 60 37 23
23 38 38 32 34 -7 -4 -17 0 -23 7 -8 10 -9 16 -1 21 6 3 8 11 5 16 -10 15 2
10 16 -8 8 -10 9 -14 2 -10 -6 4 -14 3 -18 -3 -3 -5 0 -10 8 -10 17 0 49 34
40 43 -3 4 -1 7 5 7 19 0 14 17 -10 40 -12 11 -29 18 -39 15 -10 -3 -20 -1
-24 4 -4 7 1 8 11 4 13 -5 15 -3 9 7 -5 8 8 4 28 -9 38 -23 41 -22 38 24 0 15
1 16 7 5 10 -22 34 -19 43 5 4 11 8 14 8 7 1 -20 -36 -65 -41 -50 -3 8 -7 6
-11 -6 -5 -11 -3 -15 5 -10 8 5 9 1 5 -12 -7 -19 -7 -19 8 0 8 10 16 24 18 30
3 7 10 6 23 -4 17 -13 18 -13 7 0 -7 10 -8 21 -3 30 5 8 4 22 -2 33 -8 15 -7
18 3 12 9 -6 11 -3 6 8 -3 9 -2 19 3 22 4 3 7 -5 6 -18 -2 -13 2 -24 9 -24 6
0 12 6 12 14 0 7 -4 13 -9 13 -5 0 -7 4 -4 9 7 10 31 9 42 -2 4 -4 2 -7 -4 -7
-7 0 -12 -5 -12 -11 0 -8 5 -8 15 1 12 10 13 16 4 26 -14 17 2 18 21 2 8 -7
11 -9 7 -4 -3 5 1 15 11 22 15 12 15 15 2 24 -9 6 -10 10 -3 10 6 0 11 9 10
19 0 11 -5 17 -9 15 -5 -3 -5 -10 -2 -16 4 -6 2 -8 -4 -4 -12 7 -11 -12 2 -33
7 -11 5 -13 -6 -8 -9 3 -26 -2 -39 -11 -22 -15 -23 -15 -10 1 9 12 10 17 2 17
-6 0 -14 -6 -17 -13 -2 -7 -20 -13 -40 -14 -19 0 -33 2 -29 5 4 5 16 7 58 11
5 1 5 6 2 11 -4 6 -3 10 2 9 19 -3 32 2 36 14 2 6 3 4 2 -5 -2 -10 1 -18 6
-18 5 0 10 5 10 10 1 6 2 14 3 19 0 5 4 13 9 17 12 12 8 26 -5 17 -16 -9 -54
-16 -46 -7 3 3 14 7 24 8 10 2 20 9 22 16 3 7 0 10 -6 6 -6 -4 -8 2 -4 16 4
16 2 19 -9 13 -8 -5 -11 -5 -7 0 4 4 2 15 -5 23 -10 13 -9 14 2 7 11 -6 13 -4
8 9 -4 10 -3 15 3 11 6 -4 10 -12 9 -18 -2 -21 13 -57 22 -51 5 3 4 14 -2 25
-6 12 -8 23 -5 27 3 3 6 0 6 -6 0 -7 5 -12 11 -12 5 0 8 4 5 9 -3 4 3 16 14
26 14 12 17 21 9 25 -7 5 -5 9 6 13 10 5 14 3 9 -4 -4 -7 -1 -10 7 -7 8 3 13
11 12 17 -2 6 -4 16 -5 22 -2 6 7 12 19 14 12 1 20 -2 17 -7 -3 -4 -1 -8 4 -8
6 0 13 7 16 16 3 8 10 13 14 10 5 -3 9 1 9 8 0 8 -6 12 -13 9 -6 -2 -15 1 -19
7 -3 6 -3 10 2 9 17 -3 33 1 33 9 0 5 -7 9 -15 9 -8 0 -12 -4 -9 -9 3 -4 -2
-5 -10 -2 -16 6 -21 -5 -17 -35 2 -7 -2 -10 -7 -7 -15 9 -11 52 4 54 8 1 21 3
29 4 8 1 15 4 15 8 0 15 -14 19 -34 8 -18 -9 -19 -9 -6 3 8 8 21 21 28 29 12
13 13 13 10 -4 -2 -10 3 -21 10 -23 6 -3 10 1 9 9 -2 7 -2 10 0 6 3 -4 4 -10
3 -14 -1 -4 4 -11 12 -16 9 -7 7 -8 -7 -3 -15 5 -17 3 -8 -6 6 -6 9 -18 6 -25
-3 -8 0 -14 7 -14 6 0 9 4 5 9 -3 5 2 16 10 24 10 11 11 17 3 19 -6 2 -8 10
-4 16 9 14 36 16 36 2 0 -5 -8 -7 -17 -4 -15 5 -15 4 -3 -4 8 -6 19 -8 25 -4
5 4 13 7 17 7 3 0 10 4 15 8 4 5 4 8 -2 7 -22 -5 -36 1 -29 12 4 6 3 8 -3 5
-13 -8 -26 21 -16 36 11 18 12 37 2 37 -5 0 -9 5 -9 11 0 5 5 7 10 4 6 -3 10
1 10 10 0 9 -4 13 -10 10 -5 -3 -10 -1 -10 5 0 7 8 9 20 5 14 -4 19 -2 17 7
-2 7 -2 10 0 6 11 -20 23 -6 13 15 -11 22 -11 22 5 2 9 -11 21 -19 26 -17 6 1
7 -2 4 -8 -4 -6 -10 -9 -13 -5 -3 3 -12 -5 -20 -17 -8 -14 -11 -16 -8 -5 4 11
2 16 -5 12 -6 -4 -8 -13 -5 -20 2 -7 -1 -18 -7 -24 -6 -6 -8 -11 -4 -11 4 0 3
-10 -4 -21 -7 -13 -7 -19 -1 -15 6 4 16 -2 22 -11 10 -16 11 -16 6 -1 -3 9 0
19 7 22 9 3 9 5 0 5 -7 1 -13 9 -13 19 1 18 30 63 30 45 0 -6 6 -13 13 -16 8
-3 14 1 14 9 0 7 -4 11 -9 8 -10 -6 -11 10 -1 19 3 4 12 2 20 -4 7 -6 13 -9
13 -5 0 9 -40 47 -40 39 0 -10 -20 19 -20 30 0 4 5 7 11 7 5 0 8 -4 5 -8 -2
-4 4 -13 15 -20 10 -7 19 -8 19 -3 0 6 -4 12 -10 16 -5 3 -6 13 -3 22 5 12 3
14 -7 8 -8 -5 -11 -4 -6 3 4 6 14 8 24 5 14 -6 15 -4 5 8 -10 13 -10 16 2 16
8 0 12 -4 9 -9 -3 -4 0 -8 5 -8 10 0 12 6 10 28 0 4 -6 6 -14 4 -7 -1 -15 4
-18 12 -4 11 0 13 15 11 12 -3 26 -9 32 -15 13 -13 26 -13 26 1 0 5 -4 8 -9 4
-5 -3 -16 4 -24 15 -9 13 -21 19 -33 15 -10 -3 -6 1 9 8 25 12 26 15 13 26 -9
8 -16 18 -16 24 0 6 6 3 13 -8 10 -12 16 -14 21 -7 4 7 1 12 -6 12 -8 0 -6 5
5 11 13 8 15 15 7 28 -8 15 -6 18 13 17 13 -1 21 4 19 12 -1 7 5 15 14 19 13
5 13 7 2 14 -10 7 -11 9 0 9 7 0 11 4 8 9 -3 5 1 14 9 21 12 10 13 16 3 27
-10 12 -9 18 6 29 11 7 23 11 29 7 6 -3 16 2 24 12 9 13 13 15 13 5 0 -11 3
-11 12 -2 9 9 8 15 -8 27 -19 15 -19 15 1 8 17 -6 18 -5 7 9 -9 11 -10 18 -2
23 6 3 8 11 5 16 -4 5 5 13 19 19 14 5 26 12 26 15 0 4 -4 3 -10 0 -6 -3 -10
2 -10 12 0 11 -5 24 -11 30 -7 7 -2 15 16 27 15 10 29 15 33 12 3 -3 0 -6 -6
-6 -6 0 -16 -9 -22 -20 -6 -11 -7 -20 -3 -19 20 3 27 -2 13 -11 -9 -6 -10 -10
-3 -10 19 0 27 21 12 31 -7 4 -10 11 -6 15 3 4 14 1 24 -7 14 -12 16 -12 8 1
-13 22 -15 59 -3 66 7 5 9 1 5 -9 -4 -10 -1 -17 6 -17 14 1 57 35 57 45 0 4
-8 1 -17 -6 -15 -12 -16 -12 -10 4 4 10 7 21 7 23 0 3 5 2 12 -2 6 -4 8 -3 4
4 -3 5 0 13 6 16 9 4 8 5 -2 5 -30 -2 -41 1 -35 11 3 5 13 6 22 3 13 -5 12 -1
-5 17 -12 13 -19 26 -16 29 3 3 12 -3 20 -13 8 -11 14 -15 14 -10 0 6 -6 16
-12 23 -11 11 -9 12 10 6 14 -4 22 -2 22 6 0 7 -3 9 -6 6 -4 -3 -15 -2 -25 4
-14 7 -19 6 -19 -2 0 -7 -3 -10 -6 -6 -8 8 37 67 47 61 4 -2 10 0 14 6 4 6 10
8 15 5 4 -3 10 2 13 10 4 8 1 12 -6 9 -8 -2 -13 4 -14 17 -2 18 0 19 14 7 14
-11 15 -11 8 2 -6 8 -10 18 -10 22 0 3 -4 10 -8 15 -5 4 -7 4 -5 -2 3 -10 -4
-15 -22 -15 -6 0 4 12 20 28 30 26 47 77 29 88 -4 2 -5 12 -2 20 5 13 8 13 15
2 7 -9 8 -7 5 9 -3 13 0 26 5 30 7 4 8 1 3 -6 -6 -10 -3 -11 14 -2 23 13 29
23 8 15 -15 -5 -17 22 -3 46 7 12 7 13 -5 2 -8 -7 -14 -16 -14 -20 0 -4 -8
-18 -18 -32 -9 -13 -17 -19 -17 -13 0 7 4 14 9 18 6 3 8 14 6 25 -2 12 0 18 6
15 5 -4 9 -2 9 4 0 5 -5 11 -12 13 -7 3 -5 7 6 11 10 4 15 3 11 -3 -4 -6 1 -7
11 -3 12 4 14 8 5 11 -9 3 -8 10 3 27 10 16 12 26 5 30 -7 5 -6 11 2 21 6 8 8
14 3 14 -5 0 -2 5 6 10 10 6 11 10 3 10 -24 0 -28 2 -44 16 -9 8 -19 11 -24 7
-4 -5 -5 -2 0 5 5 10 10 11 18 3 6 -6 22 -10 36 -10 17 1 20 3 9 6 -10 2 -18
9 -18 14 0 6 -6 7 -12 3 -9 -5 -9 -2 1 9 11 14 11 20 0 34 -13 15 -12 15 12 0
25 -16 27 -16 45 5 10 12 13 18 6 14 -8 -5 -14 2 -18 23 -5 21 -11 28 -23 24
-13 -4 -13 -3 -2 5 16 12 5 35 -12 26 -7 -4 -8 -3 -4 2 5 5 12 9 15 9 15 0 32
17 27 26 -4 5 -8 17 -10 27 -2 14 3 18 25 17 16 0 33 -5 37 -9 5 -5 2 -6 -6
-1 -10 6 -12 4 -6 -5 5 -8 4 -11 -3 -6 -7 4 -10 -1 -7 -14 3 -13 0 -18 -7 -14
-7 5 -8 2 -3 -6 5 -8 4 -11 -2 -7 -6 4 -17 -1 -24 -10 -12 -15 -12 -16 3 -10
10 3 20 1 24 -5 5 -7 2 -8 -6 -3 -9 6 -11 4 -5 -5 6 -9 4 -11 -5 -5 -8 5 -11
4 -6 -3 11 -17 37 -2 31 18 -3 9 1 23 10 30 8 7 12 16 9 21 -3 5 0 9 5 9 12 0
10 27 -2 47 -4 6 -1 13 5 16 10 4 11 7 1 18 -7 7 -13 26 -13 42 0 19 -4 26
-12 22 -7 -4 -4 1 7 10 18 14 21 14 32 -2 7 -9 13 -12 13 -7 0 6 -3 14 -7 18
-8 8 -9 13 -12 44 -1 14 -3 15 -11 2 -5 -9 -5 -17 1 -21 5 -3 -3 -11 -18 -17
-26 -11 -27 -11 -9 3 14 11 16 15 5 15 -12 0 -12 2 0 9 8 5 10 14 6 21 -6 9
-4 11 5 5 10 -6 12 -4 6 10 -5 15 -4 16 9 5 9 -7 18 -10 22 -6 3 3 1 6 -5 6
-7 0 -12 4 -12 10 0 5 8 7 18 3 11 -4 9 0 -7 13 -22 19 -22 21 -5 34 16 14 17
13 10 -5 -6 -16 -5 -17 5 -8 10 10 9 16 -1 29 -15 18 -25 58 -12 50 4 -2 9 4
9 16 1 13 -3 18 -12 14 -7 -2 -18 1 -24 8 -11 14 -5 26 13 26 6 0 5 -4 -3 -9
-7 -5 -9 -11 -5 -14 5 -3 15 1 22 9 7 8 8 14 2 14 -5 0 -9 3 -9 8 4 21 -3 32
-18 32 -17 -1 -17 -2 1 -15 18 -14 18 -14 -1 -12 -25 1 -26 28 -1 35 16 4 22
15 19 35 0 4 3 7 7 7 4 0 8 9 9 20 1 11 -3 20 -9 20 -6 0 -6 6 2 15 7 8 9 15
4 15 -5 0 -2 5 6 10 8 5 10 10 3 10 -15 0 -10 29 8 41 8 5 9 9 4 9 -6 0 -16
-5 -23 -12 -9 -9 -12 -9 -12 -1 0 7 5 15 10 18 6 4 7 11 4 17 -5 8 -1 9 12 5
18 -7 18 -6 2 6 -10 8 -14 18 -10 22 4 5 1 5 -5 1 -14 -8 -18 6 -5 18 4 4 7
13 7 19 1 7 7 11 15 9 12 -3 11 0 -1 15 -9 10 -14 24 -12 31 3 6 -1 12 -9 12
-10 0 -9 3 2 10 8 5 10 10 4 10 -6 0 -10 19 -9 44 1 35 -2 43 -14 38 -9 -3
-12 -1 -7 6 4 7 2 12 -4 12 -6 0 -18 7 -26 15 -9 8 -11 15 -5 15 5 0 12 -4 15
-9 7 -11 46 -22 46 -13 0 4 -14 13 -31 21 -22 10 -28 16 -20 24 17 17 13 31
-4 17 -13 -11 -18 -11 -28 -1 -9 10 -8 12 7 9 10 -1 21 2 23 8 2 7 -6 10 -19
9 -13 -1 -29 -3 -37 -4 -11 -1 -11 -5 2 -19 20 -22 21 -32 5 -32 -6 0 -8 3 -5
7 4 3 0 15 -9 25 -16 16 -15 18 6 26 16 6 20 11 11 16 -6 4 -19 2 -28 -6 -12
-9 -15 -9 -9 0 4 7 1 12 -9 12 -9 0 -13 -4 -10 -10 3 -5 1 -10 -4 -10 -6 0
-10 9 -8 20 4 23 17 39 17 21 0 -8 6 -11 16 -7 10 4 13 2 8 -6 -5 -7 -3 -8 5
-4 12 8 7 21 -7 21 -4 0 -13 4 -19 8 -7 5 -13 5 -13 1 0 -3 -11 1 -24 10 -16
10 -27 12 -31 6 -4 -6 -1 -9 6 -8 6 2 13 -2 16 -8 2 -7 -6 -11 -21 -10 -20 1
-25 5 -21 21 3 11 2 14 -1 7 -5 -10 -9 -10 -22 0 -13 11 -12 8 2 -14 12 -18
14 -28 6 -33 -6 -4 -9 -14 -5 -24 5 -12 4 -13 -6 -4 -10 10 -10 15 0 27 10 12
9 15 -8 13 -12 -1 -21 -4 -21 -7 0 -4 -7 -7 -16 -7 -15 0 -14 2 1 13 10 8 22
11 26 8 5 -3 9 0 9 6 0 7 -7 9 -16 6 -13 -5 -14 -4 -6 7 9 10 8 14 -3 14 -7 0
-14 -3 -13 -6 2 -19 -3 -31 -13 -31 -6 0 -9 6 -6 14 3 8 -1 17 -9 20 -9 3 -12
10 -9 16 3 5 1 10 -5 10 -7 0 -10 -7 -7 -14 4 -9 -2 -17 -14 -21 -10 -4 -19
-13 -19 -20 0 -8 -4 -16 -8 -19 -5 -3 -8 5 -8 17 1 13 -6 23 -16 25 -13 2 -16
-1 -12 -12 3 -9 1 -16 -6 -16 -6 0 -8 5 -5 10 9 14 -19 12 -33 -2 -8 -8 -12
-8 -12 -1 0 6 14 16 30 23 29 12 41 30 20 30 -5 0 -10 -5 -10 -11 0 -6 -9 -9
-20 -6 -11 3 -18 1 -14 -4 3 -5 -2 -9 -11 -9 -9 0 -14 4 -10 9 3 5 1 12 -4 15
-11 7 -9 -13 3 -32 7 -12 4 -12 -15 -2 l-24 13 20 -24 c19 -22 19 -23 1 -9
-18 14 -19 13 -13 -3 4 -10 3 -16 -2 -13 -11 7 -11 56 0 56 5 0 9 5 9 12 0 6
-8 4 -20 -7 -10 -9 -18 -22 -17 -28 1 -6 -5 -11 -13 -12 -8 0 -14 -7 -12 -14
1 -7 -2 -10 -7 -7 -8 5 -8 14 -2 45 1 2 9 -3 19 -10 15 -13 16 -12 3 4 -7 9
-9 17 -4 17 5 0 10 7 10 16 0 15 -1 15 -12 0 -14 -18 -30 -22 -19 -4 4 7 3 8
-4 4 -6 -4 -9 -13 -6 -20 3 -8 -1 -18 -8 -22 -17 -11 -58 -12 -52 -2 3 5 -6 7
-20 4 -14 -3 -28 0 -31 5 -4 5 -11 9 -17 9 -7 0 -6 -5 1 -14 8 -10 9 -16 1
-21 -6 -4 -9 -1 -8 6 2 6 -3 14 -11 17 -9 3 -11 0 -6 -8 6 -9 4 -11 -6 -4 -20
12 -51 16 -44 5 3 -5 1 -12 -4 -15 -10 -7 -9 20 2 30 4 4 7 12 7 18 0 6 -5 4
-10 -4 -5 -8 -10 -11 -10 -6 0 5 -6 3 -14 -3 -12 -10 -17 -8 -25 7 -6 11 -7
22 -4 26 3 3 4 6 1 6 -2 0 -7 -3 -11 -6z m21 -59 c-3 -3 -9 2 -12 12 -6 14 -5
15 5 6 7 -7 10 -15 7 -18z m25 5 c-3 -12 -8 -19 -11 -16 -5 6 5 36 12 36 2 0
2 -9 -1 -20z m494 5 c0 -8 -4 -15 -9 -15 -10 0 -11 14 -1 23 9 10 10 9 10 -8z
m-694 -11 c4 -1 11 -2 15 -3 15 -2 32 -50 21 -56 -5 -4 -9 -3 -8 2 1 4 1 15 0
23 -1 13 -3 13 -12 0 -9 -13 -10 -12 -5 2 3 10 1 20 -4 23 -6 4 -10 2 -10 -3
0 -6 -7 -13 -16 -16 -8 -3 -12 -2 -9 3 3 5 1 12 -4 15 -10 6 -26 -22 -22 -39
1 -5 -4 -4 -11 4 -10 11 -10 14 0 18 6 3 12 9 12 14 0 6 -4 8 -9 4 -5 -3 -13
0 -17 6 -5 9 0 10 14 7 12 -4 25 -2 28 3 3 5 11 6 17 2 7 -4 15 -8 20 -9z
m864 -9 c0 -8 -7 -15 -14 -15 -8 0 -11 -4 -8 -10 3 -5 1 -10 -4 -10 -16 0 -14
11 6 32 20 22 20 22 20 3z m-49 -15 c-7 -10 -14 -18 -15 -16 -6 6 9 36 18 36
5 0 4 -9 -3 -20z m-681 -12 c-3 -8 -6 -5 -6 6 -1 11 2 17 5 13 3 -3 4 -12 1
-19z m566 7 c-3 -9 -8 -14 -10 -11 -3 3 -2 9 2 15 9 16 15 13 8 -4z m-1183 -5
c0 -5 -2 -10 -4 -10 -3 0 -8 5 -11 10 -3 6 -1 10 4 10 6 0 11 -4 11 -10z m314
-16 c3 -8 2 -12 -4 -9 -6 3 -10 10 -10 16 0 14 7 11 14 -7z m1013 -19 c0 -8
-4 -12 -9 -9 -5 3 -6 10 -3 15 9 13 12 11 12 -6z m-1057 -5 c0 -5 -2 -10 -4
-10 -3 0 -8 5 -11 10 -3 6 -1 10 4 10 6 0 11 -4 11 -10z m-130 -4 c0 -2 -7 -7
-16 -10 -8 -3 -12 -2 -9 4 6 10 25 14 25 6z m-103 -12 c-3 -3 -12 -4 -19 -1
-8 3 -5 6 6 6 11 1 17 -2 13 -5z m288 -3 c3 -5 2 -12 -3 -15 -5 -3 -9 1 -9 9
0 17 3 19 12 6z m-605 -35 c0 5 5 1 11 -8 5 -10 16 -15 24 -12 8 4 15 2 15 -4
0 -6 -8 -9 -17 -7 -10 1 -25 -3 -33 -9 -13 -10 -13 -9 0 8 14 18 13 19 -2 13
-9 -3 -21 0 -27 7 -14 17 -2 29 16 15 7 -6 13 -8 13 -3z m1705 5 c3 -5 2 -12
-3 -15 -5 -3 -9 1 -9 9 0 17 3 19 12 6z m-1760 -63 c7 1 17 -3 21 -9 5 -8 3
-9 -5 -5 -7 5 -18 1 -25 -10 -10 -13 -15 -14 -21 -4 -5 9 -4 11 3 6 17 -10 15
9 -2 23 -11 9 -15 7 -19 -9 -3 -11 -1 -23 4 -26 5 -3 9 -11 8 -17 0 -8 -2 -8
-6 1 -4 10 -9 9 -20 -5 -13 -17 -13 -16 -3 5 9 19 8 22 -12 22 l-22 0 22 16
c12 8 20 19 17 24 -10 16 20 18 33 1 7 -9 19 -15 27 -13z m1810 23 c-3 -5 4
-13 16 -16 17 -6 19 -9 8 -16 -8 -5 -9 -9 -3 -9 5 0 10 -11 10 -25 0 -14 -4
-25 -8 -25 -4 0 -8 5 -8 11 0 5 -6 7 -12 3 -10 -6 -10 -4 -2 7 15 19 14 47 -3
53 -13 5 -10 26 3 26 3 0 3 -4 -1 -9z m-1665 -5 c0 -3 -4 -8 -10 -11 -5 -3
-10 -1 -10 4 0 6 5 11 10 11 6 0 10 -2 10 -4z m-373 -104 c-10 -10 -14 -22
-10 -25 3 -4 4 -7 0 -7 -15 0 -16 20 -1 34 22 22 31 20 11 -2z m2071 -3 c-2
-3 3 -13 10 -22 9 -10 10 -17 2 -22 -6 -3 -8 -11 -5 -16 4 -5 -1 -12 -10 -15
-14 -6 -14 -8 2 -26 21 -24 21 -21 5 -41 -8 -9 -10 -22 -6 -29 14 -22 12 -59
-3 -65 -11 -4 -11 -7 2 -17 9 -7 11 -16 7 -24 -6 -9 -12 -5 -20 13 -10 21 -9
27 2 31 8 3 13 13 11 22 -2 9 -4 17 -5 17 -1 0 -3 7 -5 15 -2 8 -6 24 -10 35
-6 16 -5 17 4 5 6 -8 11 -12 12 -7 5 25 3 34 -9 46 -12 13 -12 16 0 25 14 12
18 49 6 62 -12 11 -10 26 3 22 6 -2 9 -6 7 -9z m-2159 -28 c-6 -2 -15 3 -20
10 -9 15 -9 15 -13 -18 -4 -34 -11 -36 -24 -7 -7 14 -8 23 -3 20 5 -3 14 1 21
9 9 11 16 12 31 2 11 -7 14 -14 8 -16z m36 19 c3 -5 1 -10 -4 -10 -6 0 -11 5
-11 10 0 6 2 10 4 10 3 0 8 -4 11 -10z m140 -38 c-3 -3 -11 0 -18 7 -9 10 -8
11 6 5 10 -3 15 -9 12 -12z m-290 -71 c-3 -6 -11 -11 -16 -11 -5 0 -4 6 3 14
14 16 24 13 13 -3z m-91 -34 c7 -6 4 -7 -6 -3 -10 3 -18 1 -18 -4 0 -5 8 -11
18 -14 13 -4 13 -4 -3 -3 -12 2 -20 10 -21 22 -1 27 9 43 14 25 3 -8 10 -19
16 -23z m51 13 c-3 -5 -12 -10 -18 -10 -7 0 -6 4 3 10 19 12 23 12 15 0z
m-245 -65 c0 -8 -4 -15 -10 -15 -5 0 -7 7 -4 15 4 8 8 15 10 15 2 0 4 -7 4
-15z m-35 -25 c-3 -5 9 -8 30 -6 20 2 33 1 30 -3 -4 -3 -15 -7 -26 -7 -37 -3
-40 -4 -34 -15 4 -6 -2 -5 -14 3 -20 12 -20 14 -4 26 20 14 26 15 18 2z m165
-4 c0 -2 -8 -10 -17 -17 -16 -13 -17 -12 -4 4 13 16 21 21 21 13z m-149 -49
c-10 -9 -11 -8 -5 6 3 10 9 15 12 12 3 -3 0 -11 -7 -18z m2576 -23 c-3 -3 -12
-4 -19 -1 -8 3 -5 6 6 6 11 1 17 -2 13 -5z m-2753 -61 c9 -22 -1 -32 -30 -29
-29 3 -57 25 -28 23 10 -1 19 4 20 11 3 21 4 22 18 16 8 -3 17 -12 20 -21z
m79 7 c-10 -11 -19 -20 -21 -20 -1 0 2 9 8 20 6 11 15 20 20 20 6 0 2 -9 -7
-20z m31 -18 c2 -4 -5 -9 -17 -9 -17 -2 -19 0 -7 7 18 12 18 12 24 2z m-80
-17 c3 -8 1 -15 -4 -15 -6 0 -10 7 -10 15 0 8 2 15 4 15 2 0 6 -7 10 -15z m40
-23 c3 -5 -1 -9 -9 -9 -8 0 -12 4 -9 9 3 4 7 8 9 8 2 0 6 -4 9 -8z m2688 -6
c10 6 10 4 0 -9 -8 -9 -11 -21 -7 -27 3 -5 4 -10 1 -10 -2 0 -11 14 -20 31
-13 25 -13 29 -1 19 8 -6 20 -8 27 -4z m-2842 -40 c0 -3 -4 -8 -10 -11 -5 -3
-10 -1 -10 4 0 6 5 11 10 11 6 0 10 -2 10 -4z m2834 -19 c16 -12 16 -14 2 -26
-12 -11 -14 -17 -5 -27 7 -9 8 -14 1 -14 -17 0 -22 29 -7 44 13 12 12 15 -1
20 -9 3 -21 3 -26 -1 -7 -3 -8 -1 -4 5 9 15 18 15 40 -1z m-2794 -21 c-7 -7
-13 -7 -20 0 -6 6 -3 10 10 10 13 0 16 -4 10 -10z m56 2 c3 -4 -1 -5 -10 -4
-8 1 -18 5 -22 8 -3 4 1 5 10 4 8 -1 18 -5 22 -8z m-130 -20 c3 -4 -1 -5 -10
-4 -8 1 -18 5 -22 8 -3 4 1 5 10 4 8 -1 18 -5 22 -8z m-199 -22 c0 -8 -6 -12
-15 -9 -11 5 -11 7 0 14 7 5 13 9 14 9 0 0 1 -6 1 -14z m68 -66 c-1 -17 -5
-33 -8 -36 -4 -5 -2 51 2 64 5 12 8 -4 6 -28z m-38 -55 c0 -8 -4 -12 -9 -9 -4
3 -8 9 -8 15 0 5 4 9 8 9 5 0 9 -7 9 -15z m2983 5 c0 -5 -5 -10 -11 -10 -5 0
-7 5 -4 10 3 6 8 10 11 10 2 0 4 -4 4 -10z m-3105 -40 c0 -3 4 -12 10 -20 8
-13 7 -13 -8 -1 -9 7 -15 17 -12 21 3 5 1 11 -5 15 -5 3 -10 12 -10 18 1 11
24 -21 25 -33z m-55 19 c0 -5 -4 -8 -9 -4 -5 3 -12 1 -16 -5 -3 -5 -11 -10
-18 -10 -6 0 -2 7 9 15 23 17 34 19 34 4z m155 2 c3 -5 0 -13 -6 -17 -8 -5 -9
-3 -4 6 6 10 4 12 -8 7 -10 -3 -17 -2 -17 3 0 13 27 13 35 1z m2998 -16 c-3
-9 -8 -14 -10 -11 -3 3 -2 9 2 15 9 16 15 13 8 -4z m35 -10 c-3 -3 -9 2 -12
12 -6 14 -5 15 5 6 7 -7 10 -15 7 -18z m-3093 -3 c-3 -3 -11 0 -18 7 -9 10 -8
11 6 5 10 -3 15 -9 12 -12z m36 -25 c-10 -9 -11 -8 -5 6 3 10 9 15 12 12 3 -3
0 -11 -7 -18z m44 13 c3 -5 1 -10 -4 -10 -6 0 -11 5 -11 10 0 6 2 10 4 10 3 0
8 -4 11 -10z m-198 -15 c0 -8 -4 -15 -9 -15 -10 0 -11 14 -1 23 9 10 10 9 10
-8z m3233 6 c2 -1 -1 -6 -8 -13 -9 -9 -9 -15 1 -26 10 -13 9 -14 -9 -4 -12 6
-23 10 -25 9 -2 -1 2 3 9 10 11 9 10 13 -5 22 -19 11 -20 11 37 2z m-3195 -11
c3 -5 1 -10 -4 -10 -6 0 -11 5 -11 10 0 6 2 10 4 10 3 0 8 -4 11 -10z m3138
-15 c-3 -9 -8 -14 -10 -11 -3 3 -2 9 2 15 9 16 15 13 8 -4z m-3213 -29 c0 -2
-7 -7 -16 -10 -8 -3 -12 -2 -9 4 6 10 25 14 25 6z m-76 -52 c3 -8 2 -12 -4 -9
-6 3 -10 10 -10 16 0 14 7 11 14 -7z m19 -37 c7 3 8 2 4 -2 -14 -16 -36 -14
-29 3 4 10 7 12 10 4 2 -7 9 -9 15 -5z m-108 -7 c3 -5 1 -10 -4 -10 -6 0 -11
5 -11 10 0 6 2 10 4 10 3 0 8 -4 11 -10z m-55 -61 c-14 -25 -13 -29 8 -23 14
5 14 4 2 -5 -8 -5 -11 -13 -8 -16 4 -4 16 -1 27 7 12 8 19 17 16 19 -2 3 5 5
15 6 11 1 20 -2 20 -8 0 -5 -3 -8 -7 -7 -5 0 -16 -2 -26 -7 -15 -6 -15 -10 -5
-24 11 -14 11 -14 -3 -4 -12 10 -20 9 -37 -3 -12 -8 -22 -20 -22 -26 0 -7 4
-7 13 0 9 8 17 8 27 0 13 -8 12 -9 -1 -5 -9 3 -21 1 -27 -5 -8 -8 -17 -4 -31
13 -11 13 -20 19 -21 12 0 -6 5 -15 10 -18 6 -4 8 -10 5 -15 -3 -5 2 -11 10
-13 11 -4 10 -4 -2 -3 -10 1 -18 6 -18 12 0 9 -34 50 -36 42 -10 -45 -9 -51 8
-37 14 10 13 8 -2 -10 l-20 -24 22 7 c18 6 22 3 20 -13 -1 -14 -5 -17 -11 -11
-6 6 -14 10 -20 10 -6 0 -5 -5 2 -12 8 -8 9 -15 1 -25 -13 -15 2 -18 17 -3 7
7 11 6 11 -4 0 -8 -5 -14 -11 -13 -6 1 -10 -4 -8 -10 1 -7 -3 -13 -8 -13 -5 0
-10 8 -10 18 -1 16 -1 16 -14 0 -7 -10 -17 -18 -22 -18 -4 0 -3 5 4 12 19 19
14 33 -6 14 -18 -15 -20 -15 -34 1 -20 25 -17 38 17 75 17 17 29 34 28 37 -3
10 29 41 37 36 4 -3 20 14 35 36 14 22 29 38 33 34 4 -3 1 -9 -5 -13 -7 -4 -8
-13 -4 -20 5 -9 11 -5 19 13 10 21 9 27 -3 31 -8 4 -15 11 -15 17 0 5 9 2 20
-8 15 -13 17 -22 10 -36z m37 19 c-2 -12 -10 -24 -18 -26 -11 -3 -12 -2 -1 6
8 5 13 12 13 16 -2 15 -1 26 4 26 3 0 3 -10 2 -22z m3384 -2 c1 -6 1 -14 0
-18 0 -5 4 -8 10 -8 5 0 7 -5 3 -11 -4 -7 -9 -7 -13 -2 -3 5 -15 15 -26 21
-11 6 -14 12 -7 12 7 0 11 4 8 8 -3 5 1 9 9 9 8 0 16 -5 16 -11z m-3301 -30
c0 -3 -4 -8 -10 -11 -5 -3 -10 -1 -10 4 0 6 5 11 10 11 6 0 10 -2 10 -4z
m3260 -26 c0 -5 -5 -10 -11 -10 -5 0 -7 5 -4 10 3 6 8 10 11 10 2 0 4 -4 4
-10z m-3303 -15 c0 -8 -4 -12 -9 -9 -5 3 -6 10 -3 15 9 13 12 11 12 -6z m3326
-59 c8 8 3 -18 -6 -33 -4 -6 -2 -15 3 -18 12 -7 -15 -45 -32 -45 -5 0 -2 7 6
16 23 22 20 32 -9 29 -14 -2 -23 1 -20 5 3 5 13 6 23 3 15 -6 16 -5 2 13 -14
17 -13 18 1 7 25 -20 31 -3 6 19 -21 19 -21 19 -1 9 12 -6 24 -8 27 -5z
m-3423 -46 c0 -5 -5 -10 -11 -10 -5 0 -7 5 -4 10 3 6 8 10 11 10 2 0 4 -4 4
-10z m-199 -42 c4 -38 18 -70 30 -63 4 3 13 -5 19 -17 10 -21 10 -21 -3 -6 -8
10 -17 15 -21 11 -3 -3 2 -15 11 -25 12 -13 13 -18 4 -16 -7 2 -16 -3 -19 -11
-2 -8 0 -11 6 -7 6 3 14 1 18 -5 4 -8 3 -9 -4 -5 -7 4 -12 2 -12 -5 0 -6 -8
-1 -19 12 l-18 23 -12 -22 c-7 -12 -8 -22 -2 -22 5 0 11 5 13 12 3 8 6 7 10
-4 5 -11 1 -15 -15 -13 -30 3 -29 3 -18 23 9 16 6 19 -19 19 -16 0 -27 -4 -24
-9 3 -4 -2 -11 -10 -14 -9 -3 -13 -10 -10 -16 3 -5 15 -1 27 9 19 16 20 16 8
1 -12 -16 -11 -18 5 -19 15 -1 16 -2 3 -6 -12 -3 -15 -13 -13 -36 3 -22 1 -28
-5 -17 -6 8 -7 18 -4 24 3 5 1 6 -6 2 -6 -4 -9 -15 -6 -24 5 -19 -46 -48 -65
-37 -13 8 -13 25 1 25 5 0 7 -5 3 -11 -4 -7 1 -10 11 -7 10 1 20 9 23 16 2 7
0 12 -5 11 -21 -4 -34 2 -27 12 4 8 9 7 15 -2 6 -10 9 -10 9 -2 0 23 -19 23
-39 1 -25 -26 -26 -32 -6 -48 9 -7 14 -19 11 -27 -3 -7 -1 -13 4 -13 6 0 10
-5 10 -11 0 -8 -4 -8 -14 0 -10 8 -16 9 -21 1 -3 -5 -1 -10 4 -10 6 0 11 -5
11 -12 0 -6 -3 -8 -7 -5 -3 4 -12 -1 -19 -11 -9 -11 -13 -13 -14 -4 0 7 -5 10
-10 7 -6 -4 -7 -12 -3 -18 11 -18 12 -38 2 -31 -5 3 -7 9 -4 14 3 5 1 11 -5
15 -5 3 -10 1 -10 -4 0 -6 -5 -11 -12 -11 -9 0 -9 3 0 12 17 17 15 33 -3 18
-16 -13 -20 -5 -16 29 2 7 -2 11 -6 8 -5 -3 -15 -2 -23 4 -11 6 -12 9 -2 9 7
0 10 5 7 10 -3 6 -1 10 5 10 7 0 10 -6 7 -13 -3 -8 1 -14 8 -14 8 0 11 7 7 15
-4 12 -1 14 12 9 27 -11 40 3 21 23 -14 15 -14 18 0 30 9 7 13 21 10 31 -4 12
-1 19 6 19 7 0 9 -3 6 -7 -4 -3 -2 -12 4 -20 8 -8 8 -13 1 -13 -15 0 -8 -33 8
-38 7 -3 10 0 6 6 -4 6 0 23 9 36 9 14 18 31 19 38 5 27 18 58 24 59 4 0 16 2
26 4 23 4 56 35 38 35 -9 0 -9 4 0 20 7 11 18 18 25 16 19 -8 38 21 24 37 -6
8 -8 17 -4 20 10 11 23 8 24 -5z m80 -47 c-8 -5 -10 -14 -6 -22 6 -11 5 -11
-5 -2 -14 12 -6 33 13 33 8 0 7 -3 -2 -9z m40 -8 c13 -16 12 -17 -3 -4 -17 13
-22 21 -14 21 2 0 10 -8 17 -17z m3447 -148 c3 -3 -4 -4 -16 -2 -12 2 -24 6
-28 10 -4 3 4 4 16 2 12 -2 25 -7 28 -10z m-28 -100 c11 -13 10 -15 -6 -9 -18
5 -18 5 -1 -9 12 -10 14 -17 8 -22 -6 -3 -11 -1 -11 6 0 6 -15 -6 -33 -26 -22
-24 -34 -32 -34 -22 0 9 4 14 8 11 14 -8 16 21 2 42 -12 19 -12 21 4 21 43 0
49 3 33 13 -13 8 -13 10 1 10 9 0 22 -7 29 -15z m-3815 -63 c4 -12 3 -13 -9
-3 -12 10 -15 9 -13 -8 1 -16 6 -19 20 -15 13 4 17 2 13 -5 -4 -6 -14 -11 -22
-11 -8 0 -14 -5 -14 -11 0 -5 5 -7 10 -4 6 4 10 3 9 -2 -3 -19 2 -34 9 -29 5
3 9 -2 9 -10 0 -9 -4 -11 -10 -5 -5 5 -15 7 -22 5 -9 -4 -12 7 -10 38 1 24 -4
50 -11 58 -11 13 -9 15 11 16 13 1 26 -5 30 -14z m133 -17 c-3 -3 -9 2 -12 12
-6 14 -5 15 5 6 7 -7 10 -15 7 -18z m-18 -9 c0 -3 -4 -8 -10 -11 -5 -3 -10 -1
-10 4 0 6 5 11 10 11 6 0 10 -2 10 -4z m-69 -43 c-12 -20 -14 -14 -5 12 4 9 9
14 11 11 3 -2 0 -13 -6 -23z m3707 -28 c-3 -3 -9 2 -12 12 -6 14 -5 15 5 6 7
-7 10 -15 7 -18z m-3753 -25 c6 -10 -7 -20 -35 -25 -22 -4 -38 14 -22 24 17
10 51 11 57 1z m3736 -13 c-10 -9 -11 -8 -5 6 3 10 9 15 12 12 3 -3 0 -11 -7
-18z m39 -1 c0 -2 -7 -9 -15 -16 -13 -11 -14 -10 -9 4 5 14 24 23 24 12z
m-3748 -40 c5 -24 -12 -30 -29 -11 -4 4 -2 5 6 0 11 -6 13 -2 9 18 -3 15 -2
24 2 22 4 -3 10 -16 12 -29z m3662 -16 c-6 -6 -15 -5 -24 1 -13 9 -12 10 3 5
9 -3 17 0 17 6 0 6 3 8 7 5 4 -4 2 -12 -3 -17z m71 11 c3 -5 2 -12 -3 -15 -5
-3 -9 1 -9 9 0 17 3 19 12 6z m-75 -37 c3 -3 -10 -4 -28 -1 -19 3 -37 8 -40
12 -4 3 9 3 28 0 19 -3 37 -8 40 -11z m-3803 -24 c1 -11 -3 -22 -8 -25 -5 -4
-6 -12 -3 -18 4 -8 2 -7 -7 1 -12 11 -12 14 1 22 12 8 12 10 1 10 -11 0 -11 3
-1 15 16 19 15 19 17 -5z m3783 -64 c0 -12 -5 -7 -19 24 -11 24 -11 24 3 6 9
-11 16 -24 16 -30z m-3836 18 c5 -13 4 -14 -7 -6 -8 7 -18 8 -22 4 -5 -4 -5
-1 -1 6 10 17 23 15 30 -4z m3811 -24 c3 -6 -1 -7 -9 -4 -18 7 -21 14 -7 14 6
0 13 -4 16 -10z m-3847 -99 c24 -20 31 -41 8 -22 -10 8 -16 9 -21 1 -3 -5 -2
-10 2 -10 5 0 9 -11 9 -24 0 -14 -4 -22 -8 -20 -5 3 -6 9 -3 13 2 5 -2 17 -10
27 -15 19 -15 19 -8 0 5 -15 3 -18 -10 -13 -12 4 -15 1 -12 -14 2 -10 7 -25
10 -32 4 -6 0 -4 -8 5 -13 17 -15 17 -23 -2 -9 -20 -9 -20 -21 -1 -8 13 -9 22
-3 26 6 3 10 -2 10 -11 0 -16 1 -16 14 1 8 11 12 23 9 28 -2 4 7 17 21 28 15
11 24 25 21 30 -10 14 0 11 23 -10z m3720 -6 c-3 -3 -9 2 -12 12 -6 14 -5 15
5 6 7 -7 10 -15 7 -18z m52 10 c-7 -8 -16 -13 -20 -10 -5 3 -11 0 -13 -5 -3
-6 -4 -5 -3 2 2 7 8 13 14 13 5 0 14 3 18 8 13 13 17 7 4 -8z m45 -13 c-3 -3
-11 0 -18 7 -9 10 -8 11 6 5 10 -3 15 -9 12 -12z m-101 -30 c3 -5 -1 -9 -9 -9
-8 0 -12 4 -9 9 3 4 7 8 9 8 2 0 6 -4 9 -8z m23 -14 c-3 -8 -6 -5 -6 6 -1 11
2 17 5 13 3 -3 4 -12 1 -19z m17 -30 c-3 -4 -9 -8 -15 -8 -5 0 -9 4 -9 8 0 5
7 9 15 9 8 0 12 -4 9 -9z m-3857 -38 c-1 -10 -4 -17 -8 -14 -4 2 -9 -3 -12
-10 -4 -10 0 -13 14 -11 10 2 19 0 19 -6 0 -5 -4 -9 -10 -9 -5 0 -9 -3 -9 -7
1 -5 1 -10 -1 -13 -1 -3 -3 -18 -5 -33 -3 -24 -2 -27 11 -16 12 10 17 10 27 0
9 -10 8 -11 -8 -5 -18 7 -19 6 -5 -12 14 -18 14 -18 -2 -5 -15 11 -19 11 -24
-3 -3 -9 -10 -13 -15 -10 -5 3 -9 -3 -9 -12 0 -16 -1 -16 -12 -2 -7 8 -23 18
-36 21 -19 4 -21 3 -11 -9 6 -7 15 -12 19 -9 10 6 24 -14 16 -22 -3 -3 -12 0
-21 7 -17 14 -21 0 -4 -17 8 -8 7 -13 -2 -18 -7 -5 -10 -4 -5 3 3 6 2 13 -4
17 -5 3 -10 2 -10 -2 0 -5 -6 -16 -12 -24 -7 -8 -12 -12 -11 -10 2 2 -2 10 -8
17 -7 8 -6 14 2 20 8 4 9 3 5 -4 -4 -7 -2 -12 3 -12 6 0 11 2 11 4 0 2 3 12 6
21 4 9 3 15 -2 14 -21 -3 -26 2 -14 16 13 15 5 39 -11 30 -5 -4 -9 -1 -9 4 0
14 13 14 26 1 6 -6 19 -12 30 -14 10 -3 28 -8 38 -12 13 -5 17 -4 12 4 -3 6
-2 13 2 16 5 3 8 17 7 31 -2 14 1 27 6 31 5 3 2 13 -7 21 -15 15 -14 18 8 36
12 10 18 16 11 13 -6 -4 -14 -3 -17 2 -2 4 4 8 14 9 12 1 18 -5 17 -17z m3758
-140 c-3 -5 -14 -10 -23 -9 -14 0 -13 2 3 9 27 11 27 11 20 0z m-92 -167 c-3
-7 -6 -13 -8 -13 -2 0 -5 6 -8 13 -3 8 1 14 8 14 7 0 11 -6 8 -14z m-3723 -27
c0 -2 -7 -7 -16 -10 -8 -3 -12 -2 -9 4 6 10 25 14 25 6z m-6 -45 c3 -5 -2 -15
-12 -22 -15 -13 -16 -12 -4 3 10 13 10 17 0 21 -9 4 -9 6 -1 6 6 1 14 -3 17
-8z m3676 -15 c0 -2 -8 -10 -17 -17 -16 -13 -17 -12 -4 4 13 16 21 21 21 13z
m30 -6 c0 -5 -4 -10 -10 -10 -5 0 -10 5 -10 10 0 6 5 10 10 10 6 0 10 -4 10
-10z m-3776 -38 c-12 -10 -30 -23 -40 -30 -11 -7 -14 -10 -7 -7 6 3 14 2 17
-3 9 -16 -29 -9 -42 7 -11 14 -11 14 -6 -1 3 -10 -2 -20 -15 -28 -18 -9 -21
-8 -18 10 2 12 10 26 18 31 12 7 12 9 0 9 -8 0 -12 3 -9 6 4 3 16 1 27 -6 18
-9 27 -7 53 14 18 14 35 23 38 20 3 -3 -5 -13 -16 -22z m3653 13 c0 -8 -4 -12
-9 -9 -5 3 -6 10 -3 15 9 13 12 11 12 -6z m99 -17 c3 -4 -1 -5 -10 -4 -8 1
-18 5 -22 8 -3 4 1 5 10 4 8 -1 18 -5 22 -8z m-71 -25 c-11 -7 -24 -13 -29
-12 -6 0 -5 3 2 6 6 2 10 9 7 14 -4 5 2 6 11 2 13 -5 15 -3 9 7 -6 9 -4 11 5
5 10 -6 9 -11 -5 -22z m-71 9 c3 -5 -1 -9 -9 -9 -8 0 -12 4 -9 9 3 4 7 8 9 8
2 0 6 -4 9 -8z m41 -42 c-3 -5 -14 -10 -23 -9 -14 0 -13 2 3 9 27 11 27 11 20
0z m-3669 -42 c4 -7 4 -10 -1 -6 -4 4 -14 0 -22 -10 -13 -15 -13 -15 -3 6 12
25 16 27 26 10z m3655 -1 c-6 -8 -7 -18 -3 -22 4 -5 1 -5 -6 -1 -10 6 -10 11
-1 22 6 8 14 14 16 14 3 0 0 -6 -6 -13z m57 -22 c-3 -3 -9 2 -12 12 -6 14 -5
15 5 6 7 -7 10 -15 7 -18z m-81 -30 c0 -8 -4 -15 -9 -15 -10 0 -11 14 -1 23 9
10 10 9 10 -8z m-3677 -50 c0 -8 -4 -15 -9 -15 -13 0 -22 16 -14 24 11 11 23
6 23 -9z m3655 -4 c-3 -6 -11 -11 -16 -11 -5 0 -4 6 3 14 14 16 24 13 13 -3z
m-95 -71 c0 -5 -5 -10 -11 -10 -5 0 -7 5 -4 10 3 6 8 10 11 10 2 0 4 -4 4 -10z
m34 2 c3 -5 -1 -9 -9 -9 -8 0 -12 4 -9 9 3 4 7 8 9 8 2 0 6 -4 9 -8z m-3690
-20 c3 -5 -7 -26 -21 -47 -17 -25 -21 -36 -11 -32 17 6 20 -23 4 -35 -13 -9
-37 2 -30 14 4 6 10 5 15 -3 7 -11 9 -11 9 -1 0 7 -7 15 -16 19 -15 5 -15 7
-1 15 9 5 14 15 10 24 -3 9 0 14 8 12 9 -2 13 5 12 20 -3 21 11 30 21 14z
m3593 -17 c0 -8 -4 -12 -9 -9 -5 3 -6 10 -3 15 9 13 12 11 12 -6z m93 11 c0
-2 -7 -7 -16 -10 -8 -3 -12 -2 -9 4 6 10 25 14 25 6z m-3620 -10 c0 -3 -4 -8
-10 -11 -5 -3 -10 -1 -10 4 0 6 5 11 10 11 6 0 10 -2 10 -4z m3564 -12 c3 -8
2 -12 -4 -9 -6 3 -10 10 -10 16 0 14 7 11 14 -7z m41 -15 c11 -16 1 -19 -13
-3 -7 8 -8 14 -3 14 5 0 13 -5 16 -11z m-3668 -21 c2 -17 0 -19 -7 -8 -5 8 -6
18 -4 22 8 12 10 10 11 -14z m3613 -2 c0 -20 -17 -29 -26 -15 -5 8 -3 9 6 4
10 -6 12 -4 7 8 -3 10 -2 17 3 17 6 0 10 -6 10 -14z m34 -1 c-4 -8 -8 -15 -10
-15 -2 0 -4 7 -4 15 0 8 4 15 10 15 5 0 7 -7 4 -15z m-93 -52 c13 -16 12 -17
-3 -4 -17 13 -22 21 -14 21 2 0 10 -8 17 -17z m9 -41 c3 -2 -6 -1 -19 3 -18 6
-22 4 -16 -6 5 -8 4 -10 0 -6 -5 4 -10 14 -11 22 -2 12 2 13 19 4 12 -7 24
-14 27 -17z m-45 -22 c3 -6 -1 -7 -9 -4 -18 7 -21 14 -7 14 6 0 13 -4 16 -10z
m32 -11 c2 -16 -1 -19 -9 -11 -5 5 -7 15 -4 21 10 15 12 14 13 -10z m-3537
-29 c0 -5 -2 -10 -4 -10 -3 0 -8 5 -11 10 -3 6 -1 10 4 10 6 0 11 -4 11 -10z
m3510 -20 c0 -5 3 -9 8 -9 17 3 23 -2 15 -13 -4 -7 -8 -16 -9 -20 -1 -5 -2
-11 -3 -15 0 -4 -8 3 -17 15 -8 12 -19 20 -24 17 -5 -3 -11 -1 -14 4 -7 10 20
9 30 -2 17 -17 25 -5 9 13 -10 11 -13 20 -7 20 7 0 12 -4 12 -10z m-43 -89
c10 -16 7 -23 -15 -44 l-27 -26 -23 26 c-13 14 -16 23 -8 20 8 -3 17 1 21 10
4 13 8 14 17 5 7 -7 19 -12 28 -12 13 1 12 3 -2 14 -19 14 -23 26 -10 26 4 0
12 -8 19 -19z m-3457 -5 c0 -3 -4 -8 -10 -11 -5 -3 -10 -1 -10 4 0 6 5 11 10
11 6 0 10 -2 10 -4z m3340 -106 c0 -5 -2 -10 -4 -10 -3 0 -8 5 -11 10 -3 6 -1
10 4 10 6 0 11 -4 11 -10z m-3373 -16 c-3 -3 -12 -4 -19 -1 -8 3 -5 6 6 6 11
1 17 -2 13 -5z m3358 -4 c3 -5 1 -10 -4 -10 -6 0 -11 5 -11 10 0 6 2 10 4 10
3 0 8 -4 11 -10z m-25 -15 c0 -2 -6 -5 -13 -8 -8 -3 -14 1 -14 8 0 7 6 11 14
8 7 -3 13 -6 13 -8z m-45 -25 c3 -6 -1 -7 -9 -4 -18 7 -21 14 -7 14 6 0 13 -4
16 -10z m-3368 -36 c-3 -3 -12 -4 -19 -1 -8 3 -5 6 6 6 11 1 17 -2 13 -5z
m3298 -45 c-4 -5 -12 -9 -18 -8 -9 0 -8 2 1 6 6 2 9 10 6 15 -4 7 -2 8 5 4 6
-4 9 -12 6 -17z m-3308 -67 c0 -10 -9 -19 -20 -19 -10 -1 -16 3 -14 10 3 7 10
11 16 10 6 -2 11 2 11 7 0 6 2 10 4 10 3 0 4 -8 3 -18z m3233 -14 c0 -4 -4 -8
-9 -8 -6 0 -12 4 -15 8 -3 5 1 9 9 9 8 0 15 -4 15 -9z m-44 -23 c-1 -8 -5 -17
-8 -21 -5 -4 -4 16 1 34 3 9 9 -1 7 -13z m-3196 -6 c0 -6 8 -8 18 -5 14 5 14
4 -2 -9 -11 -8 -24 -15 -29 -15 -4 0 -6 -4 -2 -10 3 -5 12 -7 19 -4 8 3 17 1
21 -5 3 -7 0 -8 -9 -5 -9 4 -16 1 -16 -6 0 -18 -23 -6 -26 14 -1 9 4 20 12 23
11 4 12 9 3 19 -8 10 -8 14 0 14 6 0 11 -5 11 -11z m3280 7 c0 -2 -8 -10 -17
-17 -16 -13 -17 -12 -4 4 13 16 21 21 21 13z m-3269 -109 c-13 -13 -15 -31 -3
-23 5 3 9 -1 9 -9 0 -19 1 -19 -26 9 -20 22 -21 24 -4 23 10 -1 17 4 15 11 -1
8 2 11 9 7 8 -5 8 -10 0 -18z m3064 -7 c3 -5 1 -10 -4 -10 -6 0 -11 5 -11 10
0 6 2 10 4 10 3 0 8 -4 11 -10z m-55 -40 c0 -5 -5 -10 -11 -10 -5 0 -7 5 -4
10 3 6 8 10 11 10 2 0 4 -4 4 -10z m-144 -127 c-3 -4 -1 -12 6 -20 8 -11 7
-12 -5 -7 -10 3 -15 17 -15 36 1 24 3 27 10 13 6 -9 7 -19 4 -22z m-41 -3 c-3
-5 0 -10 7 -11 10 0 10 -2 0 -6 -6 -2 -9 -10 -6 -15 4 -6 2 -8 -4 -5 -5 4 -9
15 -7 25 5 23 4 22 11 22 3 0 2 -4 -1 -10z m-2837 -26 c2 -1 -8 -1 -21 0 -15
0 -23 6 -20 14 4 10 9 10 22 0 9 -7 17 -13 19 -14z m2797 -4 c3 -5 1 -10 -4
-10 -6 0 -11 5 -11 10 0 6 2 10 4 10 3 0 8 -4 11 -10z m-2779 -30 c0 -9 -5
-17 -11 -17 -6 0 -11 8 -11 17 0 9 5 17 11 17 6 0 11 -8 11 -17z m2804 10 c0
-5 -5 -10 -11 -10 -5 0 -7 5 -4 10 3 6 8 10 11 10 2 0 4 -4 4 -10z m-83 -35
c0 -8 -4 -12 -9 -9 -5 3 -6 10 -3 15 9 13 12 11 12 -6z m67 -47 c-3 -4 -9 -8
-15 -8 -5 0 -9 4 -9 8 0 5 7 9 15 9 8 0 12 -4 9 -9z m-39 -38 c3 -5 1 -10 -4
-10 -6 0 -11 5 -11 10 0 6 2 10 4 10 3 0 8 -4 11 -10z m-105 -20 c0 -5 -2 -10
-4 -10 -3 0 -8 5 -11 10 -3 6 -1 10 4 10 6 0 11 -4 11 -10z m-2643 -6 c-3 -3
-12 -4 -19 -1 -8 3 -5 6 6 6 11 1 17 -2 13 -5z m2539 -6 c5 4 5 3 1 -2 -12
-15 -34 -15 -34 0 0 9 4 11 12 4 7 -5 16 -6 21 -2z m-2541 -48 c-3 -5 -12 -10
-18 -10 -7 0 -6 4 3 10 19 12 23 12 15 0z m2438 -35 c-3 -9 -8 -14 -10 -11 -3
3 -2 9 2 15 9 16 15 13 8 -4z m0 -48 c6 3 -1 -9 -15 -28 -14 -19 -24 -40 -22
-47 1 -8 0 -8 -3 -1 -4 8 -8 7 -15 -2 -7 -11 -8 -9 -4 5 5 14 3 17 -11 12 -15
-6 -15 -4 2 12 14 13 23 16 28 8 5 -7 7 -2 4 11 -3 15 -1 20 8 16 9 -3 13 2
11 14 -2 10 -1 12 1 5 3 -7 9 -9 16 -5z m-2443 -27 c-8 -5 -19 -10 -25 -10 -5
0 -3 5 5 10 8 5 20 10 25 10 6 0 3 -5 -5 -10z m16 -32 c3 -4 -1 -5 -10 -4 -8
1 -18 5 -22 8 -3 4 1 5 10 4 8 -1 18 -5 22 -8z m2267 -74 c-2 -7 -11 -10 -19
-7 -17 6 -11 20 10 20 8 0 12 -6 9 -13z m-2345 -29 c-3 -3 -9 2 -12 12 -6 14
-5 15 5 6 7 -7 10 -15 7 -18z m62 9 c0 -8 -19 -13 -24 -6 -3 5 1 9 9 9 8 0 15
-2 15 -3z m1967 -19 c0 -8 -4 -15 -9 -15 -10 0 -11 14 -1 23 9 10 10 9 10 -8z
m103 -10 c0 -2 -10 -9 -22 -15 -22 -11 -22 -10 -4 4 21 17 26 19 26 11z m-185
-63 c-3 -3 -11 0 -18 7 -9 10 -8 11 6 5 10 -3 15 -9 12 -12z m125 8 c0 -5 -4
-10 -10 -10 -5 0 -10 5 -10 10 0 6 5 10 10 10 6 0 10 -4 10 -10z m-2025 -44
c7 3 15 1 19 -4 3 -5 -5 -7 -17 -6 -12 1 -26 3 -30 3 -5 1 -5 6 -1 13 6 9 9 9
11 1 3 -7 10 -10 18 -7z m1666 1 c-6 -8 -8 -17 -4 -20 3 -4 1 -7 -5 -7 -15 0
-15 13 0 28 16 16 23 15 9 -1z m123 5 c3 -5 -1 -9 -9 -9 -8 0 -12 4 -9 9 3 4
7 8 9 8 2 0 6 -4 9 -8z m24 -20 c-13 -16 -25 -25 -26 -20 -2 4 7 17 20 28 32
27 33 25 6 -8z m-1134 2 c6 2 8 1 4 -1 -4 -2 -5 -10 -2 -18 3 -7 1 -16 -5 -20
-10 -5 -15 7 -12 28 0 4 -3 7 -9 7 -5 0 -10 5 -10 12 0 9 3 9 11 1 6 -6 17
-10 23 -9z m104 -2 c-13 -5 -15 -11 -8 -22 9 -13 10 -13 10 0 0 13 1 13 10 0
8 -13 10 -12 10 3 0 9 5 17 10 17 7 0 7 -7 0 -21 -7 -11 -14 -18 -17 -15 -4 3
-12 1 -20 -6 -15 -12 -26 -6 -29 20 -3 18 13 32 36 31 11 0 11 -2 -2 -7z m912
-6 c-9 -12 -8 -15 9 -13 12 1 20 6 17 12 -2 7 2 12 10 12 17 0 18 -9 2 -25 -9
-9 -9 -12 0 -12 6 0 15 7 20 16 8 15 10 15 15 0 4 -10 3 -14 -2 -11 -6 3 -14
-3 -20 -12 -8 -14 -13 -15 -19 -5 -7 10 -11 10 -22 -3 -11 -14 -14 -13 -27 2
-14 17 -14 17 -9 -1 6 -16 4 -17 -9 -6 -16 14 -21 35 -5 25 5 -3 15 3 22 15 7
11 17 20 22 20 4 0 3 -6 -4 -14z m-1697 -19 c-13 -5 -23 -14 -23 -19 0 -5 5
-6 12 -2 6 4 8 3 5 -4 -4 -5 -17 -8 -28 -5 -19 5 -19 7 -5 15 9 5 14 13 11 17
-2 5 8 8 23 8 26 0 26 0 5 -10z m1633 -10 c-1 -12 -8 -23 -15 -25 -7 -2 -11 3
-9 14 2 14 -3 19 -19 18 -13 -1 -21 1 -19 5 2 3 18 7 35 7 26 1 30 -2 27 -19z
m-766 -32 c0 -5 -5 -3 -10 5 -5 8 -10 20 -10 25 0 6 5 3 10 -5 5 -8 10 -19 10
-25z m-836 3 c-3 -5 -10 -6 -15 -3 -5 4 -9 1 -9 -6 0 -7 -3 -10 -6 -6 -9 9 3
24 20 24 8 0 13 -4 10 -9z m-51 -13 c9 -8 17 -18 19 -22 1 -5 22 -18 46 -30
l43 -23 -6 23 c-5 19 -5 20 5 4 6 -9 17 -15 23 -11 7 3 3 -2 -7 -10 -14 -11
-23 -13 -32 -5 -9 7 -19 7 -35 -1 -12 -7 -19 -8 -15 -2 3 5 -1 15 -9 22 -12
10 -16 9 -21 -4 -3 -9 -14 -16 -23 -16 -13 1 -13 3 4 16 20 16 20 16 -1 10
-14 -4 -27 0 -38 13 -16 17 -16 20 -1 35 20 20 29 20 48 1z m-63 -5 c0 -3 -5
-12 -10 -20 -9 -13 -11 -13 -20 0 -8 12 -10 13 -10 1 0 -8 -2 -12 -5 -9 -11
11 6 34 25 34 11 0 20 -3 20 -6z m-34 -36 c41 -6 41 -23 3 -64 -36 -37 -58
-53 -44 -30 3 6 -1 13 -10 16 -12 5 -13 9 -4 20 9 11 9 17 0 28 -9 10 -9 16
-1 21 6 4 8 16 4 28 -7 22 -7 22 15 3 12 -11 29 -21 37 -22z m181 10 c0 -7 -6
-10 -14 -7 -17 7 -17 20 0 20 8 0 14 -6 14 -13z m876 1 c-3 -9 -8 -14 -10 -11
-3 3 -2 9 2 15 9 16 15 13 8 -4z m102 6 c3 -5 2 -12 -3 -15 -5 -3 -9 1 -9 9 0
17 3 19 12 6z m40 -1 c3 -5 1 -10 -4 -10 -6 0 -11 5 -11 10 0 6 2 10 4 10 3 0
8 -4 11 -10z m40 0 c3 -5 1 -10 -4 -10 -6 0 -11 5 -11 10 0 6 2 10 4 10 3 0 8
-4 11 -10z m260 -8 c-3 -3 -11 0 -18 7 -9 10 -8 11 6 5 10 -3 15 -9 12 -12z
m-490 -10 c-3 -3 -11 0 -18 7 -9 10 -8 11 6 5 10 -3 15 -9 12 -12z m609 9 c3
-5 -1 -11 -9 -14 -9 -4 -12 -1 -8 9 6 16 10 17 17 5z m-544 -25 c0 -2 -7 -9
-15 -16 -13 -11 -14 -10 -9 4 5 14 24 23 24 12z"/>
<path d="M2224 4354 c2 -10 8 -20 14 -22 17 -5 15 13 -2 27 -12 10 -14 9 -12
-5z"/>
<path d="M1466 3745 c5 -12 4 -16 -3 -12 -6 4 -16 0 -23 -8 -9 -10 -9 -15 -1
-15 6 0 11 5 11 12 0 6 6 3 14 -7 12 -16 16 -17 29 -6 9 7 13 19 10 27 -3 8
-8 12 -11 10 -3 -3 -11 -1 -19 6 -11 9 -12 7 -7 -7z m29 -25 c-3 -5 -12 -10
-18 -10 -7 0 -6 4 3 10 19 12 23 12 15 0z"/>
<path d="M1401 3707 c-6 -8 -9 -16 -6 -19 3 -3 -1 -11 -10 -18 -8 -7 -15 -19
-15 -27 0 -8 -4 -12 -9 -9 -8 5 -39 -23 -34 -31 15 -23 29 -30 42 -20 7 7 20
12 27 12 17 0 20 18 3 24 -6 2 -9 -1 -6 -6 3 -5 0 -10 -7 -10 -7 0 -13 6 -13
13 0 7 5 10 10 7 6 -3 7 -1 3 6 -4 6 0 23 8 36 9 14 14 25 10 25 -4 0 -1 7 6
15 7 8 10 15 7 15 -2 0 -10 -6 -16 -13z m-38 -103 c-4 -12 -8 -13 -14 -3 -9
15 -2 32 11 24 5 -3 6 -13 3 -21z"/>
<path d="M1397 3653 c-10 -9 -9 -23 1 -23 5 0 9 7 9 15 0 17 -1 18 -10 8z"/>
<path d="M1270 3525 c-7 -8 -17 -12 -23 -8 -6 3 -7 1 -3 -5 4 -7 3 -12 -1 -12
-5 0 -9 -9 -10 -20 -2 -20 16 -29 18 -10 1 6 2 14 3 19 0 5 5 13 10 18 5 5 6
2 1 -6 -6 -10 -4 -12 6 -6 12 7 12 6 1 -7 -14 -17 -7 -25 18 -24 19 1 26 19 9
25 -7 2 -9 -1 -4 -9 6 -9 4 -11 -5 -5 -10 6 -9 11 5 22 11 7 13 13 6 13 -7 0
-10 4 -6 9 10 16 -12 21 -25 6z m17 -10 c0 -8 -4 -12 -9 -9 -5 3 -6 10 -3 15
9 13 12 11 12 -6z"/>
<path d="M1164 3438 c-3 -4 -2 -8 3 -8 4 0 2 -4 -6 -9 -19 -12 -23 -41 -5 -34
8 3 14 1 14 -4 0 -5 7 -18 16 -29 8 -10 13 -14 9 -7 -3 7 2 25 12 40 10 15 13
24 7 20 -7 -4 -17 0 -23 7 -10 11 -8 17 6 25 16 9 15 10 -5 8 -13 -1 -26 -5
-28 -9z m21 -38 c-3 -5 -13 -6 -21 -3 -12 4 -13 8 -3 14 15 9 32 2 24 -11z"/>
<path d="M1066 3331 c-3 -5 1 -14 9 -21 19 -16 0 -44 -24 -35 -8 3 -12 3 -9
-1 4 -4 3 -15 -3 -25 -6 -12 -6 -19 0 -19 5 0 11 5 13 12 2 6 12 12 21 14 9 1
15 -2 11 -7 -3 -5 -10 -7 -15 -4 -5 4 -9 1 -9 -4 0 -6 10 -9 23 -7 12 1 20 5
17 8 -3 3 3 15 13 26 19 20 15 48 -4 36 -13 -7 -41 15 -33 27 3 5 3 9 0 9 -3
0 -7 -4 -10 -9z m44 -55 c-15 -15 -44 -17 -31 -2 6 7 18 13 26 13 11 0 12 -4
5 -11z"/>
<path d="M4770 3248 c0 -15 18 -17 30 -3 9 11 8 14 -9 12 -12 -1 -21 -5 -21
-9z"/>
<path d="M964 3078 c-3 -4 5 -5 17 -3 30 6 36 14 9 12 -12 -1 -24 -5 -26 -9z"/>
<path d="M586 2522 c-3 -5 1 -9 9 -9 8 0 12 4 9 9 -3 4 -7 8 -9 8 -2 0 -6 -4
-9 -8z"/>
<path d="M475 2200 c3 -5 8 -10 11 -10 2 0 4 5 4 10 0 6 -5 10 -11 10 -5 0 -7
-4 -4 -10z"/>
<path d="M3847 1587 c-9 -23 8 -41 22 -24 9 11 8 17 -3 26 -10 9 -15 8 -19 -2z"/>
<path d="M1990 306 c7 -7 13 -7 20 0 6 6 3 10 -10 10 -13 0 -16 -4 -10 -10z"/>
<path d="M241 256 c-9 -11 -8 -15 6 -20 10 -4 19 -2 21 4 3 7 10 4 19 -7 13
-16 13 -16 3 5 -10 20 -14 21 -28 10 -13 -11 -15 -11 -9 5 8 21 3 22 -12 3z"/>
<path d="M155 221 c3 -6 3 -11 -2 -11 -7 0 -9 -40 -4 -67 2 -10 61 49 61 61 0
6 -5 4 -10 -4 -5 -8 -10 -10 -10 -5 0 6 -9 16 -21 23 -12 8 -18 9 -14 3z m19
-52 c-10 -11 -20 -17 -23 -14 -3 4 -1 9 5 13 6 4 10 15 8 25 -2 15 0 16 12 6
13 -10 12 -14 -2 -30z"/>
<path d="M4623 5046 c6 -14 4 -17 -9 -12 -14 5 -15 4 -4 -9 7 -9 16 -12 19 -8
3 4 9 10 12 13 4 3 0 12 -9 20 -14 13 -15 12 -9 -4z"/>
<path d="M4073 5035 c0 -8 4 -15 9 -15 4 0 8 4 8 9 0 6 -4 12 -8 15 -5 3 -9
-1 -9 -9z"/>
<path d="M4270 5038 c0 -4 4 -8 9 -8 6 0 12 4 15 8 3 5 -1 9 -9 9 -8 0 -15 -4
-15 -9z"/>
<path d="M4227 5025 c-3 -7 0 -12 8 -11 22 3 27 13 11 19 -8 3 -17 0 -19 -8z"/>
<path d="M3673 5010 c-1 -11 2 -20 7 -20 4 0 7 7 6 15 -3 23 -12 26 -13 5z"/>
<path d="M3773 5024 c9 -15 -8 -35 -31 -37 -12 0 -19 -3 -17 -6 3 -2 0 -10 -6
-17 -19 -23 1 -37 23 -17 31 28 50 70 36 79 -6 4 -8 3 -5 -2z m-23 -59 c-7 -8
-18 -15 -24 -15 -6 0 -2 7 8 15 25 19 32 19 16 0z"/>
<path d="M3515 4999 c-4 -6 -5 -12 -2 -15 2 -3 7 2 10 11 7 17 1 20 -8 4z"/>
<path d="M3820 5001 c0 -6 4 -13 10 -16 6 -3 7 1 4 9 -7 18 -14 21 -14 7z"/>
<path d="M4918 4996 c4 -6 7 -15 7 -21 1 -5 6 -9 13 -7 7 1 12 -2 12 -7 0 -12
33 -7 37 6 2 6 -3 13 -12 17 -9 3 -13 2 -10 -4 3 -6 3 -10 0 -10 -10 0 -35 27
-30 32 3 3 -2 5 -10 5 -8 0 -11 -5 -7 -11z"/>
<path d="M4976 4998 c3 -5 10 -6 15 -3 13 9 11 12 -6 12 -8 0 -12 -4 -9 -9z"/>
<path d="M3450 4980 c-9 -6 -10 -10 -3 -10 6 0 15 5 18 10 8 12 4 12 -15 0z"/>
<path d="M4988 4943 c-9 -20 -1 -57 12 -60 12 -4 12 -3 1 5 -10 7 -10 14 -2
30 6 11 11 23 11 26 0 9 -18 7 -22 -1z"/>
<path d="M5016 4913 c-6 -14 -5 -15 5 -6 7 7 10 15 7 18 -3 3 -9 -2 -12 -12z"/>
<path d="M5033 4855 c0 -8 4 -12 9 -9 5 3 6 10 3 15 -9 13 -12 11 -12 -6z"/>
<path d="M2795 4781 c-3 -5 -2 -12 3 -15 5 -3 9 1 9 9 0 17 -3 19 -12 6z"/>
<path d="M2928 4773 c-10 -2 -18 -9 -18 -14 0 -12 17 -12 25 1 4 6 11 7 17 4
7 -4 8 -2 4 4 -4 7 -8 11 -9 11 -1 -1 -10 -3 -19 -6z"/>
<path d="M3057 4763 c-4 -3 -7 -11 -7 -17 0 -6 5 -5 12 2 6 6 9 14 7 17 -3 3
-9 2 -12 -2z"/>
<path d="M2740 4720 c-9 -6 -10 -10 -3 -10 6 0 15 5 18 10 8 12 4 12 -15 0z"/>
<path d="M2670 4680 c-13 -8 -12 -10 3 -10 9 0 17 5 17 10 0 12 -1 12 -20 0z"/>
<path d="M2560 4566 c0 -2 8 -10 18 -17 15 -13 16 -12 3 4 -13 16 -21 21 -21
13z"/>
<path d="M2386 4545 c-11 -8 -15 -15 -9 -15 6 0 16 7 23 15 16 19 11 19 -14 0z"/>
<path d="M2495 4520 c-3 -5 -1 -10 4 -10 6 0 11 5 11 10 0 6 -2 10 -4 10 -3 0
-8 -4 -11 -10z"/>
<path d="M2336 4507 c3 -10 9 -15 12 -12 3 3 0 11 -7 18 -10 9 -11 8 -5 -6z"/>
<path d="M2353 4459 c18 -10 18 -12 1 -30 -24 -26 -11 -34 21 -13 l27 18 -24
18 c-12 9 -27 18 -33 17 -5 0 -2 -4 8 -10z m27 -23 c0 -2 -8 -10 -17 -17 -16
-13 -17 -12 -4 4 13 16 21 21 21 13z"/>
<path d="M2275 4390 c-8 -12 2 -30 17 -30 7 0 7 4 -1 13 -6 8 -8 17 -4 20 3 4
4 7 0 7 -3 0 -9 -4 -12 -10z"/>
<path d="M5015 4391 c-3 -5 -2 -12 3 -15 5 -3 9 1 9 9 0 17 -3 19 -12 6z"/>
<path d="M2176 4378 c3 -5 10 -6 15 -3 13 9 11 12 -6 12 -8 0 -12 -4 -9 -9z"/>
<path d="M2073 4303 c4 -3 2 -12 -3 -19 -6 -6 -9 -18 -8 -25 2 -7 -3 -13 -11
-14 -18 0 -27 -25 -9 -25 10 0 9 -3 -2 -10 -8 -5 -10 -10 -4 -10 6 0 14 3 18
8 4 4 12 8 17 8 5 1 12 2 15 3 4 0 1 8 -6 16 -12 14 -5 20 21 17 4 -1 15 8 24
18 17 19 17 20 -3 20 -12 0 -22 -5 -22 -11 0 -5 -4 -8 -10 -4 -5 3 -7 12 -3
20 3 8 -1 15 -8 15 -7 0 -9 -3 -6 -7z m12 -33 c3 -5 1 -10 -4 -10 -6 0 -11 5
-11 10 0 6 2 10 4 10 3 0 8 -4 11 -10z m-9 -42 c3 -4 -1 -5 -10 -4 -8 1 -18 5
-22 8 -3 4 1 5 10 4 8 -1 18 -5 22 -8z"/>
<path d="M2176 4288 c3 -4 11 -5 19 -1 21 7 19 12 -4 10 -11 0 -18 -5 -15 -9z"/>
<path d="M1948 4208 c7 -27 17 -29 17 -4 0 13 -5 23 -11 23 -6 0 -9 -9 -6 -19z"/>
<path d="M5030 4130 c-9 -6 -10 -10 -3 -10 6 0 15 5 18 10 8 12 4 12 -15 0z"/>
<path d="M1755 4100 c-3 -5 -1 -10 4 -10 6 0 11 5 11 10 0 6 -2 10 -4 10 -3 0
-8 -4 -11 -10z"/>
<path d="M1667 4079 c7 -9 10 -19 6 -22 -3 -4 -1 -7 5 -7 17 0 15 16 -5 31
-16 12 -17 12 -6 -2z"/>
<path d="M1750 4069 c0 -5 5 -7 10 -4 6 3 10 8 10 11 0 2 -4 4 -10 4 -5 0 -10
-5 -10 -11z"/>
<path d="M5001 4044 c0 -11 3 -14 6 -6 3 7 2 16 -1 19 -3 4 -6 -2 -5 -13z"/>
<path d="M1664 4011 c-10 -17 -21 -28 -26 -25 -4 3 -8 0 -8 -6 0 -6 -6 -8 -12
-4 -7 4 -5 -1 4 -11 13 -14 20 -16 31 -7 8 7 16 9 19 7 3 -3 4 6 3 20 -3 23 5
30 29 26 5 -1 4 5 -4 13 -16 21 -16 21 -36 -13z m-9 -41 c-3 -5 -12 -10 -18
-10 -7 0 -6 4 3 10 19 12 23 12 15 0z"/>
<path d="M5014 4019 c-3 -6 -1 -16 5 -22 9 -9 10 -7 5 7 -6 15 -4 17 6 11 9
-5 11 -4 6 3 -9 15 -13 15 -22 1z"/>
<path d="M1598 3993 c7 -3 16 -2 19 1 4 3 -2 6 -13 5 -11 0 -14 -3 -6 -6z"/>
<path d="M1545 3920 c-3 -5 -1 -10 4 -10 6 0 11 5 11 10 0 6 -2 10 -4 10 -3 0
-8 -4 -11 -10z"/>
<path d="M4953 3922 c-8 -5 -9 -13 -3 -22 6 -8 10 -13 11 -10 0 3 2 13 4 23 4
19 4 19 -12 9z"/>
<path d="M5016 3895 c-9 -26 -7 -32 5 -12 6 10 9 21 6 23 -2 3 -7 -2 -11 -11z"/>
<path d="M1586 3862 c-7 -12 12 -38 21 -28 4 5 2 11 -5 13 -6 3 -10 9 -6 14 3
5 3 9 0 9 -3 0 -7 -4 -10 -8z"/>
<path d="M4950 3800 c0 -5 5 -10 11 -10 5 0 7 5 4 10 -3 6 -8 10 -11 10 -2 0
-4 -4 -4 -10z"/>
<path d="M1355 3739 c-3 -4 2 -6 10 -5 21 3 28 13 10 13 -9 0 -18 -4 -20 -8z"/>
<path d="M4951 3731 c-8 -5 -21 -7 -30 -4 -13 4 -14 3 -2 -5 14 -10 51 0 51
13 0 7 -3 6 -19 -4z"/>
<path d="M1254 3618 c-3 -4 5 -5 17 -3 30 6 36 14 9 12 -12 -1 -24 -5 -26 -9z"/>
<path d="M1320 3550 c0 -5 5 -10 11 -10 5 0 7 5 4 10 -3 6 -8 10 -11 10 -2 0
-4 -4 -4 -10z"/>
<path d="M4910 3448 c-14 -13 -29 -22 -35 -20 -5 2 -4 -3 3 -10 11 -11 16 -10
26 4 7 10 16 16 19 13 4 -3 5 -2 2 2 -3 3 0 12 6 20 18 21 5 15 -21 -9z"/>
<path d="M4886 3383 c2 -6 -5 -22 -16 -35 -16 -21 -16 -26 -4 -43 8 -10 17
-15 21 -11 4 4 1 11 -7 16 -12 8 -12 10 -1 10 7 0 11 6 8 14 -3 7 2 24 10 37
9 12 12 19 6 16 -6 -4 -13 -4 -16 0 -2 5 -2 3 -1 -4z"/>
<path d="M4914 3362 c3 -5 0 -13 -6 -15 -9 -4 -10 -6 -1 -6 17 -1 25 16 12 25
-7 4 -9 3 -5 -4z"/>
<path d="M4910 3320 c0 -5 5 -10 11 -10 5 0 7 5 4 10 -3 6 -8 10 -11 10 -2 0
-4 -4 -4 -10z"/>
<path d="M941 3194 c0 -11 3 -14 6 -6 3 7 2 16 -1 19 -3 4 -6 -2 -5 -13z"/>
<path d="M4803 3195 c-10 -11 -9 -13 6 -12 10 0 18 7 18 14 0 17 -9 16 -24 -2z"/>
<path d="M935 3010 c-4 -6 -11 -8 -16 -5 -5 4 -9 2 -9 -4 0 -5 5 -11 11 -13 9
-3 9 -9 1 -24 -9 -16 -8 -21 4 -21 7 0 14 7 15 16 0 9 2 26 3 39 3 24 0 27 -9
12z"/>
<path d="M4750 2981 c0 -6 7 -7 17 -4 10 4 14 2 9 -5 -3 -6 -2 -13 3 -16 5 -4
8 2 7 11 -3 19 -36 32 -36 14z"/>
<path d="M793 2955 c0 -8 4 -12 9 -9 5 3 6 10 3 15 -9 13 -12 11 -12 -6z"/>
<path d="M755 2931 c-3 -5 0 -13 6 -17 7 -4 9 -3 5 4 -3 5 0 13 6 15 9 4 10 6
1 6 -6 1 -14 -3 -18 -8z"/>
<path d="M4675 2870 c3 -5 1 -11 -5 -15 -6 -4 -7 -12 -3 -18 18 -28 4 -75 -18
-61 -5 3 -12 -2 -15 -11 -4 -10 -10 -12 -18 -6 -17 14 -37 -1 -26 -19 6 -10 4
-20 -7 -32 -15 -17 -15 -18 1 -18 9 0 14 -5 11 -10 -4 -6 -11 -7 -17 -4 -7 4
-8 2 -4 -5 4 -6 0 -14 -9 -17 -13 -6 -14 -8 -3 -15 9 -6 9 -9 1 -9 -18 0 -12
-33 10 -55 19 -20 19 -20 3 12 -15 31 -15 33 4 43 10 6 17 17 14 24 -3 8 4 21
16 29 17 12 18 16 6 20 -15 6 -16 30 -2 44 4 4 7 3 6 -2 -6 -29 3 -30 33 -2
17 16 31 34 29 40 -2 5 5 7 14 3 14 -5 15 -4 4 9 -10 12 -10 15 1 15 8 0 6 5
-6 14 -23 17 -14 49 12 39 10 -3 15 -3 12 1 -9 10 -50 16 -44 6z m-39 -128
c-17 -16 -18 -16 -5 5 7 12 15 20 18 17 3 -2 -3 -12 -13 -22z"/>
<path d="M795 2859 c-3 -3 2 -12 10 -19 11 -9 15 -9 15 -1 0 7 4 9 10 6 5 -3
7 0 4 8 -5 14 -32 19 -39 6z"/>
<path d="M4696 2838 c3 -5 10 -6 15 -3 13 9 11 12 -6 12 -8 0 -12 -4 -9 -9z"/>
<path d="M693 2765 c0 -8 4 -12 9 -9 5 3 6 10 3 15 -9 13 -12 11 -12 -6z"/>
<path d="M626 2682 c-3 -5 1 -9 9 -9 8 0 15 4 15 9 0 4 -4 8 -9 8 -6 0 -12 -4
-15 -8z"/>
<path d="M4523 2606 c3 -7 0 -19 -6 -26 -9 -10 -8 -12 5 -7 10 3 20 1 24 -5 4
-6 3 -8 -2 -5 -6 3 -16 2 -24 -3 -17 -10 -23 -47 -10 -55 5 -3 8 0 5 7 -8 19
33 42 50 28 10 -8 15 -8 21 1 4 8 3 9 -4 5 -11 -7 -46 47 -36 56 3 3 -3 8 -12
12 -11 4 -15 2 -11 -8z m12 -56 c-3 -5 -12 -10 -18 -10 -7 0 -6 4 3 10 19 12
23 12 15 0z"/>
<path d="M533 2595 c0 -8 4 -12 9 -9 5 3 6 10 3 15 -9 13 -12 11 -12 -6z"/>
<path d="M630 2590 c0 -5 5 -10 10 -10 6 0 10 5 10 10 0 6 -4 10 -10 10 -5 0
-10 -4 -10 -10z"/>
<path d="M4590 2596 c0 -2 8 -10 18 -17 15 -13 16 -12 3 4 -13 16 -21 21 -21
13z"/>
<path d="M530 2540 c0 -5 5 -10 11 -10 5 0 7 5 4 10 -3 6 -8 10 -11 10 -2 0
-4 -4 -4 -10z"/>
<path d="M515 2500 c3 -5 8 -10 11 -10 2 0 4 5 4 10 0 6 -5 10 -11 10 -5 0 -7
-4 -4 -10z"/>
<path d="M506 2438 c3 -4 12 -8 20 -8 8 0 14 4 14 8 0 4 -9 8 -19 8 -11 0 -17
-4 -15 -8z"/>
<path d="M4457 2411 c-9 -11 -9 -13 0 -8 6 4 14 1 16 -5 4 -10 6 -10 6 0 1 7
6 10 13 6 6 -4 8 -3 4 4 -3 5 0 12 6 15 7 3 3 4 -10 4 -13 -1 -29 -8 -35 -16z"/>
<path d="M521 2394 c0 -11 3 -14 6 -6 3 7 2 16 -1 19 -3 4 -6 -2 -5 -13z"/>
<path d="M4470 2371 c0 -5 5 -13 10 -16 6 -3 10 -2 10 4 0 5 -4 13 -10 16 -5
3 -10 2 -10 -4z"/>
<path d="M550 2332 c6 -13 14 -21 18 -18 3 4 -2 14 -12 24 -18 16 -18 16 -6
-6z"/>
<path d="M510 2321 c0 -6 4 -13 10 -16 6 -3 7 1 4 9 -7 18 -14 21 -14 7z"/>
<path d="M4405 2289 c-11 -16 -1 -19 13 -3 7 8 8 14 3 14 -5 0 -13 -5 -16 -11z"/>
<path d="M496 2275 c-3 -8 0 -17 6 -21 6 -4 8 -3 4 4 -3 5 -1 12 6 14 8 3 9 6
1 11 -6 4 -13 0 -17 -8z"/>
<path d="M453 2265 c0 -8 4 -12 9 -9 5 3 6 10 3 15 -9 13 -12 11 -12 -6z"/>
<path d="M426 2183 c-6 -14 -5 -15 5 -6 7 7 10 15 7 18 -3 3 -9 -2 -12 -12z"/>
<path d="M499 2180 c0 -3 -2 -13 -4 -22 -4 -20 10 -24 21 -7 3 6 1 16 -5 22
-6 6 -11 9 -12 7z"/>
<path d="M433 2112 c0 -12 5 -22 9 -22 11 0 10 12 -2 30 -7 12 -9 10 -7 -8z"/>
<path d="M4226 2085 c4 -8 10 -15 15 -15 5 0 1 -8 -8 -18 -10 -11 -21 -18 -24
-16 -3 2 -13 -6 -22 -17 -9 -10 -14 -19 -11 -19 4 0 1 -7 -6 -15 -7 -8 -9 -15
-4 -15 4 0 3 -5 -4 -12 -17 -17 -15 -25 8 -31 16 -4 18 -2 10 13 -7 13 -7 21
0 25 5 3 10 -2 10 -11 0 -16 1 -16 13 -2 6 8 21 20 32 26 11 6 14 12 8 12 -18
0 -16 25 2 40 8 7 12 16 9 21 -6 11 8 12 22 2 5 -5 -4 4 -20 20 -33 31 -38 33
-30 12z m24 -39 c0 -2 -7 -9 -15 -16 -13 -11 -14 -10 -9 4 5 14 24 23 24 12z
m-25 -65 c-3 -2 -15 -5 -29 -6 -24 -3 -24 -3 -8 26 l17 28 12 -22 c6 -12 10
-24 8 -26z"/>
<path d="M4286 2078 c3 -4 9 -8 15 -8 5 0 9 4 9 8 0 5 -7 9 -15 9 -8 0 -12 -4
-9 -9z"/>
<path d="M415 2049 c-4 -6 -5 -12 -2 -15 2 -3 7 2 10 11 7 17 1 20 -8 4z"/>
<path d="M437 2036 c-3 -8 0 -17 7 -19 10 -4 12 1 9 14 -6 23 -9 24 -16 5z"/>
<path d="M375 2021 c-3 -5 -2 -12 3 -15 5 -3 9 1 9 9 0 17 -3 19 -12 6z"/>
<path d="M4250 2015 c-11 -13 -10 -14 4 -9 9 3 16 10 16 15 0 13 -6 11 -20 -6z"/>
<path d="M396 1993 c-6 -14 -5 -15 5 -6 7 7 10 15 7 18 -3 3 -9 -2 -12 -12z"/>
<path d="M470 2000 c0 -5 5 -10 11 -10 5 0 7 5 4 10 -3 6 -8 10 -11 10 -2 0
-4 -4 -4 -10z"/>
<path d="M4188 1903 c7 -3 16 -2 19 1 4 3 -2 6 -13 5 -11 0 -14 -3 -6 -6z"/>
<path d="M340 1800 c-9 -6 -10 -10 -3 -10 6 0 15 5 18 10 8 12 4 12 -15 0z"/>
<path d="M4067 1750 c-3 -11 -3 -20 -1 -20 2 0 8 9 14 20 6 11 7 20 2 20 -6 0
-12 -9 -15 -20z"/>
<path d="M337 1659 c7 -7 15 -10 18 -7 3 3 -2 9 -12 12 -14 6 -15 5 -6 -5z"/>
<path d="M3954 1618 c-4 -5 -3 -12 0 -15 3 -4 6 -1 6 6 0 7 4 10 9 6 5 -3 12
-2 15 3 3 5 -2 9 -10 9 -8 0 -17 -4 -20 -9z"/>
<path d="M3935 1579 c-4 -6 -5 -12 -2 -15 2 -3 7 2 10 11 7 17 1 20 -8 4z"/>
<path d="M329 1522 c-15 -17 -15 -20 2 -30 13 -9 20 -8 31 5 11 14 10 15 -10
8 -22 -6 -23 -5 -13 14 14 26 10 27 -10 3z"/>
<path d="M3876 1514 c-5 -14 -4 -15 9 -4 17 14 19 20 6 20 -5 0 -12 -7 -15
-16z"/>
<path d="M3826 1458 c3 -5 10 -6 15 -3 13 9 11 12 -6 12 -8 0 -12 -4 -9 -9z"/>
<path d="M230 1385 c0 -7 30 -13 34 -7 3 4 -4 9 -15 9 -10 1 -19 0 -19 -2z"/>
<path d="M3686 1369 c2 -4 -2 -9 -8 -12 -7 -3 2 -5 20 -4 28 0 58 15 35 18 -4
0 -18 2 -30 3 -12 1 -20 -1 -17 -5z"/>
<path d="M277 1335 c-8 -8 -18 -11 -21 -7 -4 3 -4 -2 0 -12 6 -15 4 -17 -6
-11 -9 6 -11 4 -5 -5 6 -10 10 -10 19 2 6 8 15 17 21 19 9 4 18 29 10 29 -2 0
-10 -7 -18 -15z"/>
<path d="M3736 1327 c3 -10 9 -15 12 -12 3 3 0 11 -7 18 -10 9 -11 8 -5 -6z"/>
<path d="M3585 1310 c3 -5 11 -10 16 -10 6 0 7 5 4 10 -3 6 -11 10 -16 10 -6
0 -7 -4 -4 -10z"/>
<path d="M3709 1303 c-13 -16 -12 -17 4 -4 16 13 21 21 13 21 -2 0 -10 -8 -17
-17z"/>
<path d="M3666 1285 c-11 -8 -15 -15 -9 -15 6 0 16 7 23 15 16 19 11 19 -14 0z"/>
<path d="M235 1240 c-3 -5 -1 -10 4 -10 6 0 11 5 11 10 0 6 -2 10 -4 10 -3 0
-8 -4 -11 -10z"/>
<path d="M3484 1166 c20 -18 33 -23 41 -16 6 5 15 7 18 3 4 -3 7 -1 7 5 0 15
-13 15 -28 0 -7 -7 -12 -8 -12 -2 0 6 -12 16 -27 23 l-28 12 29 -25z"/>
<path d="M3476 1125 c-3 -8 -1 -15 4 -15 6 0 10 7 10 15 0 8 -2 15 -4 15 -2 0
-6 -7 -10 -15z"/>
<path d="M3285 1064 c-11 -9 -14 -14 -6 -14 11 0 11 -3 1 -15 -12 -14 -7 -19
15 -16 6 1 -2 -8 -17 -20 -26 -19 -27 -22 -13 -48 8 -16 11 -32 7 -36 -4 -5
-2 -5 5 -1 7 4 9 14 6 22 -5 14 -3 15 18 5 22 -11 23 -11 5 3 -11 9 -16 21
-12 32 5 13 9 14 20 5 11 -9 16 -9 22 0 4 7 3 9 -4 5 -6 -3 -13 -2 -16 3 -4 5
2 12 11 14 17 4 17 5 1 6 -10 0 -18 6 -18 12 0 5 4 8 9 4 13 -7 22 10 15 28
-8 23 -27 27 -49 11z m45 -28 c0 -6 -5 -4 -10 4 -5 8 -10 10 -10 4 0 -7 -7
-15 -16 -18 -10 -4 -13 -2 -7 7 4 6 8 15 9 20 1 4 2 10 3 13 2 11 31 -18 31
-30z m-36 -44 c-11 -10 -19 -24 -17 -32 4 -13 3 -13 -6 0 -8 11 -5 19 12 32
29 23 38 23 11 0z"/>
<path d="M226 955 c4 -8 8 -15 10 -15 2 0 4 7 4 15 0 8 -4 15 -10 15 -5 0 -7
-7 -4 -15z"/>
<path d="M3335 960 c-3 -5 -1 -10 4 -10 6 0 11 5 11 10 0 6 -2 10 -4 10 -3 0
-8 -4 -11 -10z"/>
<path d="M3137 892 c-10 -10 -14 -22 -10 -25 3 -4 7 -17 8 -30 1 -13 9 -23 19
-23 10 -1 11 0 2 3 -8 2 -12 12 -9 24 7 24 23 25 23 2 1 -17 1 -17 11 -1 7 13
5 24 -7 43 -19 30 -17 29 -37 7z m32 -15 c8 -11 6 -13 -12 -11 -30 3 -29 3
-22 14 8 14 20 13 34 -3z"/>
<path d="M3220 905 c0 -7 30 -13 34 -7 3 4 -4 9 -15 9 -10 1 -19 0 -19 -2z"/>
<path d="M3186 823 c-6 -14 -5 -15 5 -6 7 7 10 15 7 18 -3 3 -9 -2 -12 -12z"/>
<path d="M3108 783 c6 -3 10 -9 6 -14 -8 -14 2 -11 14 4 8 10 6 13 -11 14 -12
0 -16 -1 -9 -4z"/>
<path d="M3030 720 c0 -5 5 -10 11 -10 5 0 7 5 4 10 -3 6 -8 10 -11 10 -2 0
-4 -4 -4 -10z"/>
<path d="M259 691 c7 -5 9 -11 5 -13 -5 -3 -4 -3 3 -2 20 5 25 -14 6 -20 -14
-4 -14 -4 2 -3 30 3 26 39 -5 44 -17 2 -21 0 -11 -6z"/>
<path d="M2856 633 c-6 -14 -5 -15 5 -6 7 7 10 15 7 18 -3 3 -9 -2 -12 -12z"/>
<path d="M250 620 c0 -5 5 -10 11 -10 5 0 7 5 4 10 -3 6 -8 10 -11 10 -2 0 -4
-4 -4 -10z"/>
<path d="M2810 610 c-9 -6 -10 -10 -3 -10 6 0 15 5 18 10 8 12 4 12 -15 0z"/>
<path d="M2770 600 c0 -5 5 -10 10 -10 6 0 10 5 10 10 0 6 -4 10 -10 10 -5 0
-10 -4 -10 -10z"/>
<path d="M235 590 c-3 -6 1 -7 9 -4 18 7 21 14 7 14 -6 0 -13 -4 -16 -10z"/>
<path d="M252 572 c-7 -5 -7 -12 2 -24 11 -15 13 -15 24 2 8 14 8 19 -2 23 -7
3 -18 2 -24 -1z"/>
<path d="M2655 480 c3 -5 8 -10 11 -10 2 0 4 5 4 10 0 6 -5 10 -11 10 -5 0 -7
-4 -4 -10z"/>
<path d="M2607 459 c7 -7 15 -10 18 -7 3 3 -2 9 -12 12 -14 6 -15 5 -6 -5z"/>
<path d="M2223 425 c0 -11 4 -12 14 -4 7 6 13 13 13 15 0 2 -6 4 -13 4 -8 0
-14 -7 -14 -15z"/>
<path d="M2470 395 c-11 -13 -10 -14 4 -9 9 3 16 10 16 15 0 13 -6 11 -20 -6z"/>
<path d="M229 383 c-13 -16 -12 -17 4 -4 9 7 17 15 17 17 0 8 -8 3 -21 -13z"/>
<path d="M2226 363 c-6 -14 -5 -15 5 -6 7 7 10 15 7 18 -3 3 -9 -2 -12 -12z"/>
<path d="M2270 365 c0 -8 4 -15 8 -15 5 0 9 7 9 15 0 8 -4 15 -9 15 -4 0 -8
-7 -8 -15z"/>
<path d="M2333 362 c-11 -9 -14 -14 -8 -10 7 4 15 5 18 1 4 -3 7 -1 7 7 0 10
3 10 15 0 8 -7 12 -17 8 -23 -3 -6 -1 -7 5 -3 14 8 5 33 -13 40 -8 3 -22 -3
-32 -12z"/>
<path d="M2190 355 c-11 -13 -10 -14 4 -9 9 3 16 10 16 15 0 13 -6 11 -20 -6z"/>
<path d="M909 336 c-1 -3 -2 -9 -3 -13 -1 -5 -5 -14 -9 -20 -5 -7 -4 -13 2
-13 5 0 12 6 14 13 4 9 8 8 16 -3 9 -12 10 -10 8 9 -3 22 -25 42 -28 27z"/>
<path d="M2211 333 c-1 -17 16 -25 25 -12 4 7 3 9 -4 5 -5 -3 -13 0 -15 6 -4
9 -6 10 -6 1z"/>
<path d="M133 309 c-2 -23 3 -25 10 -4 4 8 3 16 -1 19 -4 3 -9 -4 -9 -15z"/>
<path d="M225 320 c-3 -5 -1 -10 4 -10 6 0 11 5 11 10 0 6 -2 10 -4 10 -3 0
-8 -4 -11 -10z"/>
<path d="M2187 311 c-4 -17 -3 -21 5 -13 5 5 8 16 6 23 -3 8 -7 3 -11 -10z"/>
<path d="M993 274 c0 -9 4 -11 12 -4 7 5 14 9 16 7 2 -1 3 0 1 2 -7 11 -29 7
-29 -5z"/>
<path d="M2078 283 c7 -3 16 -2 19 1 4 3 -2 6 -13 5 -11 0 -14 -3 -6 -6z"/>
<path d="M890 259 c0 -5 5 -7 10 -4 6 3 10 8 10 11 0 2 -4 4 -10 4 -5 0 -10
-5 -10 -11z"/>
<path d="M1036 262 c-2 -4 -1 -14 4 -22 7 -11 9 -9 7 8 -1 24 -3 26 -11 14z"/>
<path d="M1066 258 c3 -5 10 -6 15 -3 13 9 11 12 -6 12 -8 0 -12 -4 -9 -9z"/>
<path d="M1935 261 c-3 -5 0 -13 6 -17 7 -4 9 -3 5 4 -3 5 0 13 6 15 9 4 10 6
1 6 -6 1 -14 -3 -18 -8z"/>
<path d="M2015 261 c-3 -5 -2 -12 3 -15 5 -3 9 1 9 9 0 17 -3 19 -12 6z"/>
<path d="M2070 266 c0 -2 7 -7 16 -10 8 -3 12 -2 9 4 -6 10 -25 14 -25 6z"/>
<path d="M626 223 c-4 -5 -12 -8 -17 -8 -5 0 -9 -3 -9 -7 0 -31 1 -32 10 -18
11 17 32 20 42 5 5 -6 11 -6 19 2 10 10 16 10 27 1 8 -7 24 -13 35 -14 12 -2
16 0 10 2 -18 8 -16 25 2 18 8 -4 15 -2 15 3 0 10 -76 11 -86 0 -4 -4 -15 0
-24 8 -9 8 -20 12 -24 8z"/>
<path d="M873 205 c0 -8 4 -12 9 -9 5 3 6 10 3 15 -9 13 -12 11 -12 -6z"/>
<path d="M1273 193 c-1 -19 1 -22 8 -12 11 17 12 39 2 39 -5 0 -9 -12 -10 -27z"/>
<path d="M1737 213 c-4 -3 -7 -10 -7 -14 0 -11 29 -19 35 -10 6 11 -20 33 -28
24z"/>
<path d="M834 202 c3 -5 0 -13 -6 -15 -9 -4 -10 -6 -1 -6 17 -1 25 16 12 25
-7 4 -9 3 -5 -4z"/>
<path d="M1064 193 c0 -11 8 -20 18 -20 10 -1 18 3 18 9 0 6 -3 8 -7 5 -3 -4
-11 0 -17 9 -10 13 -12 13 -12 -3z"/>
<path d="M1155 200 c-3 -5 -1 -10 4 -10 6 0 11 5 11 10 0 6 -2 10 -4 10 -3 0
-8 -4 -11 -10z"/>
<path d="M1300 200 c0 -5 5 -10 11 -10 5 0 7 5 4 10 -3 6 -8 10 -11 10 -2 0
-4 -4 -4 -10z"/>
<path d="M1342 201 c-11 -7 -10 -9 3 -14 9 -4 14 -3 10 2 -3 5 1 12 7 14 7 3
9 6 3 6 -5 0 -16 -3 -23 -8z"/>
<path d="M1404 198 c2 -7 11 -12 21 -10 12 2 15 -1 10 -10 -6 -10 -5 -10 5 -1
17 16 3 38 -15 23 -9 -8 -15 -8 -18 0 -3 6 -4 5 -3 -2z"/>
<path d="M1611 205 c0 -5 5 -17 12 -26 11 -15 14 -14 32 10 15 20 15 23 2 12
-14 -11 -17 -11 -17 0 0 12 -2 12 -9 0 -7 -11 -9 -11 -14 0 -3 8 -6 10 -6 4z"/>
<path d="M1681 197 c-6 -6 -11 -16 -11 -21 0 -6 5 -3 11 6 5 10 16 15 24 12 8
-4 15 -4 15 -1 0 11 -28 15 -39 4z"/>
<path d="M1856 201 c-4 -5 3 -7 14 -4 23 6 26 13 6 13 -8 0 -17 -4 -20 -9z"/>
<path d="M675 181 c-3 -5 -2 -12 3 -15 5 -3 9 1 9 9 0 17 -3 19 -12 6z"/>
<path d="M896 178 c3 -5 10 -6 15 -3 13 9 11 12 -6 12 -8 0 -12 -4 -9 -9z"/>
<path d="M1780 185 c0 -7 30 -13 34 -7 3 4 -4 9 -15 9 -10 1 -19 0 -19 -2z"/>
<path d="M796 167 c3 -10 9 -15 12 -12 3 3 0 11 -7 18 -10 9 -11 8 -5 -6z"/>
<path d="M1694 163 c1 -12 5 -25 9 -28 4 -3 5 -2 2 2 -3 3 3 16 12 27 15 17
15 18 1 8 -13 -10 -17 -10 -21 0 -3 7 -5 3 -3 -9z"/>
<path d="M340 166 c0 -2 7 -7 16 -10 8 -3 12 -2 9 4 -6 10 -25 14 -25 6z"/>
<path d="M513 163 c4 -3 -1 -12 -11 -20 -15 -13 -15 -13 6 -3 19 9 23 30 5 30
-4 0 -3 -3 0 -7z"/>
<path d="M1395 160 c3 -5 8 -10 11 -10 2 0 4 5 4 10 0 6 -5 10 -11 10 -5 0 -7
-4 -4 -10z"/>
<path d="M1490 158 c0 -6 3 -8 7 -5 3 4 12 2 20 -5 7 -6 16 -8 20 -4 3 3 1 6
-6 6 -7 0 -10 4 -7 8 2 4 -4 9 -15 9 -10 1 -19 -3 -19 -9z"/>
<path d="M1556 153 c-6 -14 -5 -15 5 -6 7 7 10 15 7 18 -3 3 -9 -2 -12 -12z"/>
<path d="M276 133 c-6 -14 -5 -15 5 -6 7 7 10 15 7 18 -3 3 -9 -2 -12 -12z"/>
<path d="M347 139 c7 -7 15 -10 18 -7 3 3 -2 9 -12 12 -14 6 -15 5 -6 -5z"/>
<path d="M706 142 c-3 -5 1 -9 9 -9 8 0 12 4 9 9 -3 4 -7 8 -9 8 -2 0 -6 -4
-9 -8z"/>
<path d="M755 140 c3 -5 8 -10 11 -10 2 0 4 5 4 10 0 6 -5 10 -11 10 -5 0 -7
-4 -4 -10z"/>
<path d="M1433 133 c0 -9 4 -10 14 -2 7 6 13 12 13 14 0 1 -6 2 -13 2 -8 0
-14 -6 -14 -14z"/>
<path d="M90 136 c0 -2 8 -10 18 -17 15 -13 16 -12 3 4 -13 16 -21 21 -21 13z"/>
<path d="M415 129 c-4 -6 -5 -12 -2 -15 2 -3 7 2 10 11 7 17 1 20 -8 4z"/>
<path d="M36 122 c-3 -5 1 -9 9 -9 8 0 12 4 9 9 -3 4 -7 8 -9 8 -2 0 -6 -4 -9
-8z"/>
<path d="M200 120 c8 -5 20 -10 25 -10 6 0 3 5 -5 10 -8 5 -19 10 -25 10 -5 0
-3 -5 5 -10z"/>
<path d="M1650 120 c0 -5 5 -10 11 -10 5 0 7 5 4 10 -3 6 -8 10 -11 10 -2 0
-4 -4 -4 -10z"/>
<path d="M60 74 c0 -8 7 -17 15 -20 8 -4 15 -12 15 -19 0 -8 4 -16 9 -19 5 -4
7 3 4 15 -3 11 -12 23 -19 26 -8 3 -14 9 -14 15 0 5 4 7 9 3 5 -3 12 -2 15 3
2 4 -4 9 -15 9 -11 1 -19 -5 -19 -13z"/>
<path d="M30 73 c0 -7 -5 -12 -11 -10 -7 1 -12 -12 -13 -28 -2 -27 1 -30 25
-30 16 -1 26 1 24 4 -3 2 3 10 13 18 16 12 16 13 -2 6 -12 -4 -17 -3 -13 4 4
5 0 19 -8 29 -8 11 -14 14 -15 7z m17 -28 c4 -4 2 -5 -4 -1 -7 4 -13 2 -13 -3
0 -6 5 -11 11 -11 5 0 7 -5 3 -12 -6 -9 -9 -9 -12 0 -2 7 -7 10 -11 8 -4 -3
-7 4 -7 14 0 18 19 21 33 5z"/>
</g>
</svg>
